<svg xmlns="http://www.w3.org/2000/svg" xmlns:xlink="http://www.w3.org/1999/xlink" viewBox="0 0 35.38 35.38"><defs><style>.cls-1{fill:none;}.cls-2{clip-path:url(#clip-path);}.cls-3,.cls-4{fill:#ffe9a4;}.cls-3{opacity:0.2;}.cls-5{fill:#233050;}.cls-6{fill:#fff;}</style><clipPath id="clip-path"><rect class="cls-1" x="-577.12" y="-1529.6" width="1345.18" height="1345.88"/></clipPath></defs><g id="BG"><g class="cls-2"><rect class="cls-3" x="-593.96" y="-1546.59" width="1388.65" height="1562.54"/><path class="cls-4" d="M53-285.58c1.12-2.33-.43-3-3.78-1.59-1.55.64-2.27.69-1.58.12,1.21-1,1.71-5.49.83-7.44a4,4,0,0,0-2.5-1.37c-1.69-.36-2-.87-1.82-2.7.29-2.42-1.56-3.79-3.76-2.8a1.15,1.15,0,0,1-1.61-.4c-.23-.51-.71-.5-1.06,0s-.84.53-1.07,0,.25-1.26,1.09-1.66c1.39-.67,1.35-.75-.46-.92-1.07-.09-1.91-.67-1.84-1.26s-.55-.77-1.32-.42c-1.1.49-1.68-.07-2.44-2.37-.94-2.84-1.17-2.95-3.84-1.74a7.31,7.31,0,0,1-4.61.54c-1.29-.54-1.39-.7-.37-.6,2.39.24,3.4-2.19,1.65-4-1.12-1.12-2.06-1.25-3.11-.42-1.95,1.56-4.08-.4-3.13-2.89.83-2.2-.22-2.75-2.94-1.53-2.46,1.11-4.11.06-3.49-2.2.34-1.25-.17-1.75-2.18-2.13-1.45-.28-2.75-.18-2.9.23s.42.83,1.39.95c1.4.18,1.43.34.17.94-1.53.74-2.1.09-4.35-4.92-.69-1.52-1.19-2.15-1.15-1.42a1,1,0,0,1-1.17,1.14c-.81-.1-.78.3.1,1.13s.91,1.32-.44,1.42a2.28,2.28,0,0,0-2.06,1.64c-.2,1-.43.81-.72-.69-.24-1.22-.9-2.27-1.47-2.35a2.64,2.64,0,0,1-1.65-1.51c-.34-.76-.17-1.28.39-1.19s1.23-.76,1.53-1.91c.36-1.39.28-1.69-.25-.91s-1,.62-1.43-.22a1.61,1.61,0,0,0-2.18-.66c-1.17.57-1.18.81,0,1,1,.15,1.29.59.86,1.24-.77,1.16-3.79,1.31-4.29.2-.22-.48-.66-.44-1,.11s-.7.21-.77-.68a2.59,2.59,0,0,1,1.54-2.37c1.1-.5,1.28-1.12.53-1.87a1.49,1.49,0,0,0-2.14-.11c-.6.6-1.29.42-1.67-.42-.51-1.15-1.19-1.06-3.27.45-2.61,1.89-2.61,1.89-1.23-.47s1.3-2.4-.9-3.37a6.38,6.38,0,0,0-4.37-.07c-1.1.49-2.26.51-2.48,0a1,1,0,0,1,.54-1.31c1.71-.77-2.55-3.16-5.33-3-2.08.13-2.58-.2-2.24-1.46s-.22-1.64-2.49-1.68c-1.57,0-4.52-.08-6.37-.1s-3.73.41-4.07.92a1.15,1.15,0,0,1-1.61.27c-.55-.39-.51-.9.08-1.17.83-.37.68-.66-.63-1.29-1-.48-2-.42-2.34.13s-.57-.1-.5-1.36c.18-2.83,0-3.34-1.22-2.81-.51.23-.5.71,0,1.06s.57.82.06,1.05a2.31,2.31,0,0,1-1.9-.27,2.33,2.33,0,0,0-2.4.57,1.68,1.68,0,0,1-2.5.11c-.63-.64-.62-1.36,0-1.65a7.05,7.05,0,0,0,2.29-2.61c1.13-2.06,1.11-2.08-1-1.21-1.37.59-1.71,1.15-1,1.63s-.64.4-2.87,0a17.09,17.09,0,0,1-4.57-1.31,2,2,0,0,0-1.75,0,5.33,5.33,0,0,1-3.43-.49c-1.26-.55-2.8-.51-3.42.11-1,.95-1.1.75-1-1.25.09-1.36-.2-2.2-.69-2a1.74,1.74,0,0,0-.73,1.66c.06.7-.52.48-1.29-.5s-1-1.92-.6-2.12.54-1,.19-1.72c-.6-1.35-1.69-1.26-4.43.36-.89.53-2.19.12-3.39-1.08-1.48-1.47-2.3-1.61-3.47-.57-1.48,1.31-2.25.86-3.11-1.82-.45-1.39-7-2.31-8.55-1.2s-4.11-.21-3.06-1.81c.53-.8.27-1-.76-.55s-1.57.13-1.63-.9-.59-1.32-1.52-.9c-.76.35-1.65.19-1.88-.32s.25-1,1-1.09c1.08-.07,1.17-.42.34-1.27-1-1.06-1.2-.94-1.81,1.17s-.8,2.3-3.72,1.27c-2.43-.87-2.75-1.22-1.59-1.73,1.69-.77,1.34-2.22-.6-2.46-.69-.09-1.49.74-1.7,1.76-.46,2.14-1.8,3.36-1.54,1.4.09-.69-.27-1-.87-.73s-1.06-.23-1.12-1.13c-.1-1.45-1.59-1.49-6.51-.19-1,.26-1.92,0-2-.66a1.52,1.52,0,0,0-1.64-1c-.91,0-1.84-1.06-2.52-3s-1.6-3.06-2.59-3-1.21.7-.72,1.8a1.72,1.72,0,0,1-.91,2.51c-2.21,1-4-.14-3.27-2.05,1-2.53-.19-3.38-3.17-2.3-3.68,1.34-4.77,1.17-4.9-.75-.06-1-.68-1.22-1.87-.69a2.69,2.69,0,0,1-2.92-.37c-.85-.87-1.76-.72-3.52.57-1.39,1-2.79,1.44-3.36,1.05s-2.11-.17-3.47.44a6.07,6.07,0,0,1-4.18.35,2.64,2.64,0,0,0-2.69.24c-.57.56-1.19.64-1.4.17-.69-1.52-4.81-.19-5.7,1.85s-3.66,3.66-4.26,2.33-2.09-.19-3.08,2.71c-1.16,3.38-.38,5.27,1.75,4.31a5.56,5.56,0,0,1,4,.27c2.12,1,2.12,1.08,0,2-1.27.57-2.4.68-2.59.24-.74-1.63-3.2.53-2.87,2.52.2,1.23-.22,2.11-1.05,2.15a1.52,1.52,0,0,0-1.53,1.15c-.06.56.43.83,1,.56s.51.57-.24,1.84-1.57,2.26-1.79,2.14-1.23-.78-2.31-1.51c-1.83-1.23-1.85-1.21-.4.48,1.25,1.47,1.1,2.22-.89,4.38-1.3,1.41-2,2.47-1.61,2.3s.59.4.34,1.33,0,1.78.48,2,.5,1,0,1.73c-.61.91-1.56,1-2.85.25-1.57-.91-2.37-.74-4.3.87s-2.39,1.71-2.48.5c0-.79-.55-1.16-1.07-.79s-1.26-.2-1.67-1.44-1.13-1.94-1.63-1.71c-.94.41-5-.81-5.57-1.68-1.48-2.29-3.36-2.86-5.29-1.6-2.6,1.7-6.42.81-4.56-1.07s.33-3.79-2-2.84c-1.9.78-1.92.75-.55-.75,1.17-1.27,1.14-1.45-.11-.94-2.25.9-9.33-2.06-9.44-3.94-.05-.9-.4-1.39-.8-1.12a21.3,21.3,0,0,1-3,1.31c-1.67.6-1.94.53-1-.26,1.71-1.4,1.05-3-.88-2.17-.76.35-1.28.27-1.09-.17s-.75-.87-2.11-.94a3.8,3.8,0,0,1-3.31-2.13c-.72-1.72-1.32-1.81-4.07-.67-2.92,1.23-3,1.19-1.28-.34l2-1.69-2.18.83c-1.48.56-2.19.36-2.22-.63s-1-1.15-3.53-.36c-1.87.6-3.54,1.54-3.62,2s-.81-.55-1.61-2.33-2-3.2-2.73-3.11a7.62,7.62,0,0,1-3-.54c-1-.38-1.94-.27-2.18.26s-.48.22-.55-.77c-.08-1.18-1.47-2.13-4.42-3-2.35-.7-4.42-1.87-4.57-2.58s-.72-1-1.29-.59-1.28.11-1.62-.65a1.85,1.85,0,0,0-2.48-.52c-1,.46-1.8.32-1.71-.3s-.62-.8-1.47-.43c-1.71.75-8.14-.85-8.73-2.17s-8.16-4.08-9.52-3.47a2.28,2.28,0,0,1-2.39-.56,2.35,2.35,0,0,0-2.48-.51,1.46,1.46,0,0,1-1.95-.71,1.37,1.37,0,0,0-1.86-.74c-.7.31-2.92-.12-4.92-.95s-3.81-1.24-4-.89-2.11.06-4.26-.64c-3-1-4.47-.89-6.43.35-2.22,1.4-2.31,1.75-.72,2.82a3.75,3.75,0,0,0,3,.7,1.21,1.21,0,0,1,1.55.38c.21.48,1.63.34,3.07-.31s2.92-.75,3.25-.14.91,1.63,1.28,2.28a2.49,2.49,0,0,0,2.13,1.08c1-.09,1-.38.18-1s-.77-.76.17-.63c.77.1,1.68,1.23,2,2.51.54,2.11.68,2.14,1.45.27.49-1.18,1.27-1.91,1.84-1.69s1.07-.33,1.19-1.31c.17-1.3.35-1.41.8-.51a2.25,2.25,0,0,1-1,2.44,2.35,2.35,0,0,0-1,2.46c.31.68,1,.72,1.62.08s1.32-.59,1.74.34a1.73,1.73,0,0,0,2.34.68c1.79-.8,4.94.15,4.49,1.35-.16.42.81.56,2.23.32s2.77.14,3.09.86c.61,1.35-.32,2.19-1.81,1.63a4.6,4.6,0,0,0-2.08-.08c-8,1.62-8.19,1.62-6.28-.12l1.81-1.65-2.86-.7a12,12,0,0,0-6.07.58c-1.72.7-2.59.81-1.88.24,1.07-.86,1-1.35-.64-2.67-1.44-1.2-2.95-1.33-5.74-.53-2.08.6-4,1.61-4.26,2.22a2.43,2.43,0,0,1-2.05,1.23c-1.09.07-1.24.33-.49.84s.54,1-.22,1.32c-1,.43-1.61-.29-2.39-2.6-.69-2-1.42-3-2-2.56s-1.06.07-1.22-.67c-.2-.91-.75-.87-1.84.11-.87.79-1.75,1-2,.44s-1.84-.34-3.54.42-3.27,1-3.48.54-.9-.3-1.6.42-1.16.85-1,0c.22-1.73,2.71-5.15,3-4.1.61,2.28,1.6,2.79,3.48,1.78,1.4-.75,1.69-1.47.93-2.23s-1.08-.73-1,.14c.06.69-.35,1.2-.88,1.11a1.56,1.56,0,0,1-1.07-1.56c-.09-1.73-3.54-1.2-5,.77a3.11,3.11,0,0,0-.54,2.64,3.83,3.83,0,0,1-.29,2.89,3.65,3.65,0,0,0-.41,2.58c.23.52.74.18,1.22-.8.64-1.34,1-1.4,1.44-.3a2.83,2.83,0,0,1-.07,2.44,2.23,2.23,0,0,0,.5,2.47c.84,1,.7,1.68-.49,2.21s-1.38,1.08-.44,2c1.88,1.9,3.6,2,4.45.29a1.73,1.73,0,0,1,2-1.09c.74.26.46,1.48-.73,3.14-1.07,1.48-2.14,2.29-2.37,1.78s-.71-.51-1.06,0-1,.19-1.37-.66c-1-2.2-3.35-3-4.72-1.65-.93.93-1.1.71-1-1.28a3.89,3.89,0,0,1,1.65-3.14c.84-.41.95-.71.26-.68s-2.27,1.31-3.45,2.77-2.12,2.17-2,1.53c.24-1.84-2-1.63-5.07.48s-2.9,4.58.36,4.2c1.35-.16,2.17.32,2.23,1.33s.46,1.24,1.23.47,1.36-.61,1.89.58c1.22,2.71-.41,4.07-3.22,2.67-2.26-1.13-2.57-1.08-2.48.4s-.06,1.61-1.67.71c-1.12-.63-2.1-.53-2.64.26s-.89.76-1-.33c-.11-1.88-2.07-2.1-4.41-.5-.78.53-1.79,1.19-2.13,1.39-2,1.14,7.5,10.51,13.61,13.47s9.14,3.84,10.09,2.94c.68-.65.76-.17.23,1.29-.44,1.22-.38,2.79.14,3.31,1.44,1.43.27,1.71-2,.48-1.12-.61-1.66-.57-1.37.11.54,1.29-1.07,2.32-1.64,1.05a4.8,4.8,0,0,1,.36-2.82c.68-1.79.5-2-2.09-1.81-2.09.11-3,.55-3.34,1.65s-.18,1.19.74.28,1.63-.73,2.49.31c.67.82.87,1.7.44,1.89a.86.86,0,0,1-1.19-.48c-.2-.46-1.36-.55-2.53-.19a2.09,2.09,0,0,1-3-1.41c-.79-2-2.91-2-3.17,0-.29,2.17-4.41,4-6.87,3.09-2.21-.84-2.27-1-1.21-2.47.63-.87.92-1.54.66-1.49-2.82.54-4.84,1.69-5.21,3-.31,1.09-1.21,1.68-2.7,1.78a7.62,7.62,0,0,0-4.14,1.91c-1.87,1.74-1.88,1.73-.77-.47.81-1.6.76-2.22-.16-2.17a1,1,0,0,1-1.14-1.07c.08-.6-.6-.18-1.44.9-1.16,1.5-1.79,1.81-2.37,1.17s-1-.5-1.38,0-1,.13-1.39-.7-.78-1-.73-.28a2.19,2.19,0,0,1-1.2,1.86c-.68.31-1.08,1-.86,1.51.57,1.27-2.19,2.21-2.8,1-.28-.59-1.93-1.38-3.62-1.73-2.93-.61-3.12-.53-3.56,1.5-.24,1.13-.08,2.39.33,2.65s.11.82-.73,1.2-1.39.31-1.2-.17c.41-1.09-2.43-2.45-3.78-1.81-1.76.85-3.55,5.31-3,7.39,1,3.71-.11,5.71-3.4,5.89-3.81.2-5.14,1.62-5.3,5.68-.13,3,0,3.31,1.55,3.22s1.58.08.76,1.35-.72,1.34.63.73a1.83,1.83,0,0,1,2.29.55c.42.73,1,1.71,1.3,2.32s-.8,1.73-3.07,2.81l-3.65,1.75.61-3.18c.6-3.13.57-3.18-1.47-2.81-1.71.31-1.84.68-.73,2.11s.89,2.44-.61,4.77c-1.08,1.67-1.74,3.79-1.47,4.74.76,2.65.22,3.24-3,3.21-1.64,0-2.59.12-2.12.3,1.28.5-.27,4.13-1.68,3.94-.66-.09-.62.31.09,1,1,.95.46,1.47-2.93,3-2.29,1-3.94,2.25-3.71,2.74s-1.1,1.87-2.92,3.05c-2,1.28-3.09,2.65-2.76,3.38a1.41,1.41,0,0,1-.8,1.84,2.36,2.36,0,0,0-1.28,2.16,2.71,2.71,0,0,1-1.61,2.31c-1.95.87-2.6,4.94-.83,5.18a4.24,4.24,0,0,0,2.73-1.19c1.09-1,1.71-.94,2.18.09.67,1.49-1.89,4.64-3.88,4.76-2.18.12-1.62,2.38.64,2.54,1.58.11,2.09-.18,2.07-1.17,0-.73.43-.4,1,.77.86,1.73.63,2.18-1.4,2.67-1.38.33-2.29.92-2.09,1.35s-.42,1.11-1.44,1.57-1.95.44-2.16,0-1.26-.74-2.42-.6-2.2-.13-2.43-.64.05-.83.64-.74.49-.53-.23-1.43c-1.63-2-2.73-1.52-2.3,1a2.64,2.64,0,0,1-1.44,2.8,2.69,2.69,0,0,0-1.7,2.34,3.43,3.43,0,0,1-1.9,2.59c-1.94,1-1.93,1,.58.71,2.26-.3,2.17-.15-.76,1.26-1.85.89-3.13,2-2.89,2.52s-.42,1.79-1.47,2.86c-1.7,1.72-1.67,2.33.24,5.86l2.13,3.94-4.86,4.73c-2.69,2.63-5.95,5.24-7.31,5.86-2.88,1.32-9.29,9.5-8.62,11,.26.57-.61,2.27-1.95,3.83-2.6,3.05-4.52,4.28-4.32,2.77s-4.16-2.59-5.08-1.23c-1.3,1.92-5.72,2.72-8.19,1.49-2-1-2.44-.86-3.67,1-1.52,2.26-1.48,3,.49,9.55.75,2.51.87,4.43.27,4.36a2.31,2.31,0,0,0-1.86,1.08c-1.45,2.23-8.13,4.84-9.32,3.65a1.44,1.44,0,0,0-2.13,0c-.61.62-2.64,1.15-4.65,1.22-2.71.1-3.7.48-4.13,1.61s-1.14,1.12-2.78.13c-2.11-1.28-4.42-.5-6.13,2.05-.38.57-1.69.66-3,.22-1.78-.59-2.66-.36-3.68,1-.77,1-1.73,1.51-2.25,1.16-1.22-.82-10.59,3.75-10.83,5.28s-3.36,3.11-4.82,2.28c-.65-.37-.84,0-.46.81a3.93,3.93,0,0,0,3.12,1.61l2.47.16-2.18.47c-1.21.26-2,.89-1.77,1.41s-.28,1-1.07,1c-2.39.12-2.07,1.74.65,3.37a12.73,12.73,0,0,1,3.52,3.11c1.39,2.13,2.53,2.53,1.65.58-.38-.85-.34-1.68.08-1.87s1,.72,1.31,2c.46,1.95,1,2.21,3.14,1.53,3-1,4.92.38,2.25,1.6-1,.46-1.94.46-2.14,0s-.9-.29-1.54.33-1.1.63-1,0-.44-.88-1.12-.57a2.37,2.37,0,0,1-2.43-.54c-.66-.62-1.46-.67-1.84-.11-.87,1.29-1.44-.35-.76-2.19.45-1.21.25-1.44-.85-.94a2.5,2.5,0,0,1-2.41-.24c-.54-.51-.45,0,.22,1.27,1,1.91.81,2.35-1.89,3.61s-2.94,1.76-2.17,3.58c.51,1.2.51,2.5,0,2.95a.82.82,0,0,1-1.39-.24c-.37-.82-.66-.69-1.31.59a2.39,2.39,0,0,0,.21,2.71c1.22,1.22.36,1.85-2.05,1.49-1.85-.27-3.8,1.3-3.21,2.61.26.58.71.34,1.19-.64.61-1.22,1.05-1.23,2,0a1.9,1.9,0,0,1,.23,2.55c-.56.56-1.19.64-1.4.17-.59-1.31-4.68.92-5.48,3-.38,1-1,1.73-1.37,1.61s-1.21.48-1.93,1.38-1.9,2.23-2.75,3.07c-1.26,1.27-1.24,1.44.16,1.16.89-.18,2.56.63,3.66,1.77,1.64,1.71,1.8,2.47.87,4.08-1.77,3-.7,3.67,1.52.9,2.55-3.17,2.72-3.24,3.37-1.3.3.89,1,1.27,1.59.87a1,1,0,0,1,1.46.31c.25.6.56.68.75.18.54-1.41,4.28,1.33,4.39,3.22s-2.06,2.46-2.56.54c-.24-1-1.1-1-2.76-.16-3,1.51-5,1.64-4.83.31.08-.53-1-.49-2.23.09-1.79.8-2.1,1.35-1.25,2.19,1.46,1.46-.83,1.29-3.51-.26-2.3-1.33-4.51-.53-6.21,2.25-.69,1.12-3.29,2.9-5.86,4-3,1.28-4.21,2.19-3.47,2.58,3.49,1.83,2.58,9-1.43,11.45-1.53.91-3.8,2.3-5,3-2.55,1.6-5.16,7.49-3.25,7.3a1.52,1.52,0,0,1,1.56.73c.2.46-.16.79-.8.72s-1.63.7-2.18,1.74c-.89,1.69-.93,1.64-.4-.43s.53-2.23-.89-.41A8.69,8.69,0,0,0-623-67.3c-.06.48-3,2-6.44,3.36-6.24,2.46-6.34,2.46-6.92,0-.9-3.78-3.52-3.51-4.7.48-.51,1.77-.51,3.73,0,4.23s.57,1.12.13,1.32c-1.6.72,0,2.33,2,2,2.37-.4,2.6,0,1.65,3-.66,2.1-.55,2.18,1.66,1.19,1.53-.69,2.59-.6,3,.25s-.18,1.65-1.19,2.11-1.61,1.18-1.38,1.69-.7,1.41-2,2c-1.94.92-2.09,1.21-.75,1.41,1,.15,1.33.44.83.7s.15.68,1.52,1c2.27.53,2.33.63,1.2,2.21-.94,1.31-.87,1.81.36,2.39a3.9,3.9,0,0,1,1.82,2.8c.21,1.64.52,1.82,1.46.87s1.39-.62,2.25,2c.75,2.21,1.39,2.92,2.16,2.4a4.12,4.12,0,0,1,3.26.11c2,.81,2.07.86.38,1-2.68.16-2.77,4-.12,4.72a3.73,3.73,0,0,0,2.44.08c.24-.25.71,0,1,.62,1.17,2.33,4.17,4.94,6.1,5.31,2.08.4,2.87,1.67,2.54,4.07-.09.67,1.11,1.74,2.74,2.44a6.64,6.64,0,0,1,3.53,3.3,3.07,3.07,0,0,0,2,2.25c1,.13,1-.17.13-1.08-1.75-1.74-.36-2.08,2-.49,1.64,1.1,1.72,1.36.59,1.87-.76.34-1.14,1-.91,1.48L-600-2.7c.17.38,1,.43,1.89.12l2.76-1a1.5,1.5,0,0,1,1.8.93c.34.76.84,1.14,1.15.86a13.14,13.14,0,0,1,3.69-1.1c2.16-.41,3.18-.12,3.27.92s.48,1.17,1.32.33C-583-2.72-582.7-2.51-581,.5c.74,1.3,5.79,3,7.12,2.41,1.53-.69,4.22.61,4.36,2.11.1,1,.58.82,2.06-.67,1.68-1.69,2.17-1.73,3.8-.28a10.29,10.29,0,0,0,5.08,2A8,8,0,0,1-554,7.94a2.51,2.51,0,0,0,2.63,1c.7-.31,2.68.22,4.4,1.19,2.72,1.52,8.14,2,6,.48-.49-.34-.48-.81,0-1a1.23,1.23,0,0,1,1.49.81c.3.67,2,1.19,3.72,1.13s3.1.43,3,1-.57.87-1.31.39-1.21-.37-1.3.33c-.15,1.06,2.34,1.52,4.47.82.55-.17,1.17.41,1.41,1.33.29,1.09,1,1.39,2.09.89.93-.42,3.16-.23,5.08.42s3.84,1,4.37.74c1.09-.5,6.76,2.26,7.4,3.6.26.53,2,.09,4.15-1.05s3.65-1.54,3.58-.89.78,1.18,1.86,1.3,1.48.46.88.72-.62,1.56,0,2.83c.93,2.08,1.33,2.16,3.55.75s2.53-1.32,2.72.26c.15,1.26.66,1.64,1.61,1.21.77-.34,1.22-1,1-1.52s.2-1.16,1-1.5c1.8-.82,2.29.78.86,2.81-1.09,1.55-1.08,1.57.45.88.84-.38,1.38-1.11,1.16-1.59a1.08,1.08,0,0,1,.66-1.37c.6-.27.92-.1.74.38-.45,1.18,3.19,2.34,5.12,1.64,1.26-.46,1.84,0,2.39,2,.6,2.18,1.05,2.49,2.59,1.79,1-.46,2-.51,2.08-.12.55,1.9,1.32,2.26,1.54.74.18-1.2.43-1.41.8-.67a1.19,1.19,0,0,0,1.43.69,6.44,6.44,0,0,1,3.47.58c2.09.79,2.79.66,3.67-.69.73-1.12,2.23-1.84,4.61-2.22l3.52-.57-3.49,2.34c-1.88,1.26-3.42,2.49-3.34,2.67.61,1.36,4.07,4,4.81,3.65.52-.23,3.59.17,6.88.89q5.94,1.3,6.82,3.25c.62,1.38,1.81,1.88,4.07,1.69,1.77-.15,3.41-.59,3.68-1,.76-1.13,3.76-1.19,4.25-.08.23.51-.33,1-1.23,1s-1.23.36-.73.69c1.27.85,4.32-.45,4.52-1.94a2.57,2.57,0,0,1,1.48-1.78c.76-.35,1.26-.19,1.19.38-.22,1.64,2.79,1.09,4.76-.88,1-1,2.05-1.65,2.42-1.53a10.84,10.84,0,0,0,3.66-1,10,10,0,0,1,4.5-.9c1,.25,1.71-.26,2.27-1.74.7-1.85,1-2,2.8-1.5,2.58.77,7.46-.43,6.63-1.62-.35-.52,0-1.07.7-1.23a3.42,3.42,0,0,0,1.87-2.43c.47-1.9.6-1.85,1.25.51.4,1.45,1,2.24,1.34,1.74s.81-.46,1,0,1.14.61,2,.22a4.92,4.92,0,0,1,3.17-.1c1.24.47,1.66.23,1.86-1.09s.57-1.53,2.5-.56c1.28.65,1.79.77,1.18.28-1.55-1.24-.16-4.56,1.8-4.3,1.3.17,1.51.53,1,1.81-.75,2,.75,5.59,2.24,5.43.66-.07,1.91,1.12,2.86,2.73a10.76,10.76,0,0,0,3.2,3.61,2.12,2.12,0,0,1,1.37,1.83c-.16,1.25,4.56.56,5.47-.81.33-.48.66-.21.72.58.07.95,1.78,1.59,4.83,1.78,4.94.32,7.59,2.6,5.49,4.72-.86.86-.72,1.21.7,1.9s1.58,1,.82,1.71c-1.26,1.17-.45,2.61,1.07,1.93s1.41-3-.15-4.93,1.8-3.82,4.2-2.2c.92.61,2.13.76,2.58.31,1-1.06,8.82,1.64,8.4,2.91-.16.46.43-.06,1.27-1.13,1.29-1.63,2.07-1.87,4.45-1.34a7.6,7.6,0,0,1,3.22,1.25c.17.34,1.13.26,2.06-.16a3.27,3.27,0,0,1,2.71-.1,1.09,1.09,0,0,0,1.53-.13c.92-1.36,4.26,1.71,4.73,4.35.24,1.32.82,2.19,1.32,2a.93.93,0,0,0,.51-1.25c-.21-.45.21-.88.91-.92s1.3-1.09,1.31-2.42a4.63,4.63,0,0,1,1.21-3.3c1-.76,1-.57.28.94-.59,1.2-.46,2.24.34,2.81s1.11,2,.85,3.59c-.22,1.43,0,2.85.55,3s.92-.21.87-.9a1.36,1.36,0,0,1,1.4-1.3c.8,0,1.29-.53,1-1.08s.31-1.36,1.33-1.82,1.95-.42,2.18.09-.36,1.24-1.38,1.69c-2.12,1-1.85,2.19.7,3.16,1,.37,1.78,1.15,1.84,1.82s1,1.5,2.13,1.9A5,5,0,0,1-296,58.63c.55,1.22,5.39,1.56,7,.48,1-.61,1.44-.52,1.33.24s.42.93,1.27.55,1.38-.19,1.31.32c-.23,1.82,3.25,2.1,5.35.43,1.58-1.25,2.05-1.27,2.11-.11.07,1.48,2.28,2.62,4.23,2.18,3.15-.7,5.77-.32,6.33.92.38.85,1.09,1,1.71.41s1.37-.73,1.72-.37,1.72.31,3.05-.15c1.68-.57,2.47-.34,2.67.79.39,2.15,3.37,2,5.09-.31.77-1,1.66-1.65,2.08-1.49s.32.47-.28.74a1,1,0,0,0-.31,1.46c.4.56-.12,1.54-1.15,2.2-1.74,1.12-1.71,1.25.44,2.1a17.31,17.31,0,0,0,4.39,1c1.77.1,1.53.45-1.55,2.22a14.21,14.21,0,0,1-6.47,1.94c-1.57-.08-3.24.28-3.76.83s-1.14.53-1.35,0-.76-.44-1.13.1a2.38,2.38,0,0,0,.44,2.45c1.68,2.1-.42,3.74-2.2,1.7-1.35-1.54-1.45-1.38-1.24,2l.22,3.68-1.9-1.85c-1.75-1.71-1.78-1.6-.34,1.43,1.8,3.77,1.73,4.45-.66,5.75-1.23.66-1.4,1.32-.59,2.31a2.28,2.28,0,0,0,2.17,1c.58-.23.61.22.06,1a4.44,4.44,0,0,1-2.86,1.7c-1.65.2-1.66.54-.05,2.67,2.12,2.82,2.21,6.88.17,7-.87,0-1.37,1.6-1.33,4.13.11,6.07.64,8.92,1.46,7.72,1.07-1.59,1.17,2.37.1,4.31a1.8,1.8,0,0,0,.25,2.26c.64.42.71.9.16,1.15s-.3,1.82.46,3.51c1,2.29,1.82,2.95,3,2.52,1.5-.53,1.52-.49.16.59s-1.4,1.18.79,1.74,2.15.58.21.82c-1.16.14-1.61.39-1.06.58s.63,1.35.23,2.55c-.6,1.79-.36,2.51,1.22,3.73s1.75,1.8.88,3c-1.52,2-.54,3.57,1.33,2,1.46-1.18,1.56-1.06,1.4,1.76-.09,1.68.23,3.18.7,3.36s1.47,1.94,2.23,3.94,1.79,3.43,2.31,3.2c1.69-.76,2.08,2.12.48,3.56s-1.48,1.47,1.81,2.45c2.83.84,3.21,1.22,2.23,2.22a3.21,3.21,0,0,0,.63,5.27c2.25,1.09,5.46,6.92,5.26,9.56-.11,1.58.18,2.26,1,2.39.66.09,1.32,1,1.46,2.1s.59,1.77,1,1.58c1.38-.62,3.86,5.61,3.06,7.7-1,2.69.56,3.28,2.21.82.73-1.09,1.26-1.46,1.16-.8s.25,1,.85.74,1,.06.86.78a1.69,1.69,0,0,1-1.59,1.33c-.8.05-1.24.34-1,.65a6.86,6.86,0,0,1,.23,3.11c-.16,1.81.19,2.75,1.2,3.23a4.35,4.35,0,0,1,1.82,2.91,4.61,4.61,0,0,0,2.12,3.07c1.95,1,5.51,7.62,4.35,8.14-1.41.64,1.13,3.19,3.91,3.92,2.54.66,4.69,2.61,2.58,2.34-.45-.06-1.26.5-1.67,1.16-.65,1-.31,1.47,1.78,2.26a10,10,0,0,0,4.43.66c1.6-.28,1.6-.19-.06.67-2.15,1.11-2.42,4.42-.28,3.46.77-.34.94-.89.41-1.25s-.53-.84,0-1.06,1.33.88,1.87,2.67c.76,2.52,1.52,3.2,4,3.65s3.4,1.22,4.63,4c1,2.21,1.92,3.31,2.62,3,1.08-.49,4.14,2.11,4.39,3.74a3.21,3.21,0,0,0,1.58,1.58,3.06,3.06,0,0,1,1.55,2.31c.06,1,.88,1.5,2.23,1.34,1.17-.13,2.31.14,2.52.6s1.18.81,2.17.75c2.79-.16,8.62,1.92,9.24,3.3.3.68.9,1,1.38.81s.36-.88-.27-1.51-.66-1.34-.06-1.61,1,0,.92.61c-.21,1.61,5.67,3.73,8.79,3.16,1.6-.29,2.43,0,2,.6-.93,1.38,4.33,5.55,6,4.79.59-.27,1.14.19,1.19,1,.12,2,3.62,4.67,4.47,3.42.36-.55.69-.58.81-.09.44,1.79,1.06,1.77,3.28-.12,1.32-1.12,2.52-1.65,2.72-1.2s-.84,1.64-2.4,2.71c-2.73,1.89-2.73,1.95-.44,4.59,1.4,1.61,2.69,2.31,3.24,1.76,1.26-1.28,3.45,1.14,2.43,2.68-1.16,1.76-.17,1.2,2.77-1.56,2.3-2.15,2.33-2.39.43-2.79a3.54,3.54,0,0,1-2.64-2.69c-.52-2.11-.46-2.16.93-.77a37.11,37.11,0,0,0,3,2.63c2.34,1.81,3.34,4.72,1.86,5.39a1.43,1.43,0,0,1-1.9-.47c-.35-.72-.69-.45-1,.81a4.88,4.88,0,0,1-1.26,2.4c-1.07.67-.13,3.48,1.61,4.84a16.23,16.23,0,0,1,3.11,4.21c1.88,3.54,4.89,5.58,6,4,.37-.54.87-.56,1.1-.05s-.26,1.24-1,1.58c-.93.42-1,1.08-.29,1.86a12.43,12.43,0,0,1,1.8,2.51c.46.94,1.11.9,2.38-.15,1.48-1.24,1.58-1.2.65.2-1.74,2.61-.49,4.36,1.92,2.68,2-1.41,1.78-4.58-.36-4.88-.53-.07-1.32-1.11-1.73-2.25-.57-1.61-.2-2.37,1.57-3.2a6.39,6.39,0,0,0,2.66-2,2.39,2.39,0,0,1,1.12-1.27c1.11-.49-.2,2.75-2.12,5.28l-1.6,2.11,2.79.76c2.53.69,2.64,1.34.34,1.9-.51.12-.26.48.58.82a2.72,2.72,0,0,1,1.57,2.1c.11,1.95,2.56,2.32,5.78.87,1.87-.84,2.66-.66,3.3.75l.84,1.87,2.14-3.19c1.89-2.82,4.66-4.33,7.29-4,1.85.25,1.76,4.13-.13,5.61-1,.82-1.62,2.05-1.29,2.78s.14,1.27-.49,1.19.1.82,1.48,1.94,2.49,2.58,2.41,3.2.83.7,2.19.09,2.26-.54,2.18.08.37.61,1,0,1.35-.74,1.59-.2,1.33.33,2.71-.66c1.7-1.22,2.6-1.33,3.54-.42,1.12,1.08.72,1.38-3.5,2.65-3.15.94-5,1.94-5.51,3-.88,1.83-2,1.43-4-1.44a6.28,6.28,0,0,0-2.09-2.07c-.45-.15-.26.32.42,1s.83,1.51.32,1.74-.52.7,0,1c1.71,1.16.19,1.14-2.64,0-1.53-.64-2.53-.84-2.18-.44.7.79.26,1.51-1.35,2.23-.49.22-1-.65-1.29-2.07s-.82-2.35-1.26-2.23c-3.44,1-5,1.68-4.69,2.26a8.92,8.92,0,0,1,.38,2.33c0,.9.52,1.44,1,1.21s.69-1.13.33-2c-.58-1.39-.44-1.43,1.4-.42,2.72,1.49,2.27,2.79-1.29,3.72-3,.78-3,.82-.66,1.47,2.79.75,2.79.75,2.09,3.21-.5,1.76-.37,2,1.12,1.89,2.24-.12,3.15,2.23,1.21,3.15-1.47.69-1.46.72.48.94a3.77,3.77,0,0,1,2.75,1.92c1,2.11,1.75,1.84,3.55-1.18,1.1-1.85,1.35-2,1.4-.74a1.62,1.62,0,0,0,1.75,1.41c.9-.06,1.61.46,1.52,1.1a1.62,1.62,0,0,1-1.57,1.27,1.55,1.55,0,0,0-1.55,1.2,1.05,1.05,0,0,1-1.18,1,.54.54,0,0,0-.6.83c.26.58,1.06.43,1.93-.35,1.22-1.1,1.58-1,2,.69.69,2.89,3.09,1.47,2.89-1.71-.17-2.78,1.84-6.12,3.35-5.56.54.19-.13-1.65-1.53-4.18s-2.18-4.68-1.77-4.87a6.17,6.17,0,0,0,1.56-2.74c.72-2.05,1.27-2.41,3.55-2.31,1.87.07,2.87.72,3.25,2.11a3,3,0,0,0,1.85,2.18c.8.1.9-.41.26-1.35s-.53-1.59.49-1.75a20.21,20.21,0,0,0,3.88-1.23c1.28-.55,2.31-.64,2.25-.2s.81,1.42,1.89,2.16c1.63,1.1,1.82,1.6,1,2.74a1.78,1.78,0,0,1-2.29.83c-.92-.4-1-.85-.39-1.46a1.77,1.77,0,0,0,.53-1.76c-.24-.52-.71-.44-1.14.2s-.65.55-.55-.21-.37-1.06-1.22-.68-1.22,1-1,1.53-1,1.5-2.65,2.26c-3.74,1.68-3.88,4.21-.25,4.22,1.63,0,2.5-.34,2.25-.89a1,1,0,0,1,.49-1.29c.48-.21,1.2.28,1.54,1,.49,1.07,0,1.6-1.83,2S-82,333-82.11,334.43s.16,1.92.92,1.58c.59-.27.5,1-.2,2.84-1.17,3.08-.23,5.92,1.67,5.07.51-.23.48-.63-.07-1-1.21-.8-.64-1,2.53-1,1.82,0,2.93-.61,4.36-2.43,1.1-1.41,1.38-2.51.67-2.6a2.44,2.44,0,0,0-2,1c-.91,1.38-2.77,2.71-3,2.15a32,32,0,0,1-.23-4.38c0-2.84.26-3.56,1-2.56a2.53,2.53,0,0,0,3,.48c1.76-.84,1.75-1-.16-1.36-1.12-.24-1.93-.84-1.75-1.3s1.14-.64,2.07-.38c1.37.39,1.88-.08,2.36-2.13l.61-2.62,1,2c1.19,2.42,3.92,6.15,5,6.91s5.09-2.09,4.6-3.2c-.19-.41.64-.61,1.85-.42s2.29.76,2.4,1.27,1.42,1,3,1.1c2.41.15,2.55.28,1,1l-1.77.84,2.23.17a8.42,8.42,0,0,1,3.29.87c.59.38,2.43.17,4.08-.46a18.84,18.84,0,0,1,3.29-1.07,4.91,4.91,0,0,0,1.45-.3c.64-.2,1.46.57,1.84,1.72s1.19,1.89,1.81,1.64.33.38-.64,1.41c-1.17,1.24-2.08,1.65-2.71,1.22s-2.44.59-5.18,2.89l-6.12,5.1a4.33,4.33,0,0,0-1.73,3c.14,1.08.75,1,2.65-.48,1.59-1.21,2.62-1.53,2.91-.9a1.11,1.11,0,0,1-.62,1.45c-.58.26-1.72,2.08-2.5,4-1.12,2.73-1.58,3.19-2.08,2.06-.65-1.44-5.47-1.3-6,.18-.19.47.35.55,1.2.16s1.71-.27,1.94.25c.49,1.1-.43,1.53-2.61,1.22a2.07,2.07,0,0,1-1.71-2c0-1,.46-1.68,1.17-1.6s.37-.42-.72-1.15-2.18-1-2.46-.58-.85-.53-1.32-2.15c-.55-1.9-1.08-2.55-1.52-1.9-.8,1.18-.08-4.95.78-6.66.33-.66-.37-.47-1.6.42s-2.35,1.23-2.61.67,0-.88.56-.81.84-.74.67-1.78c-.2-1.34-.73-1.69-1.74-1.16a31.61,31.61,0,0,1-5.17,1.66c-2.57.63-3.41,1.12-2.7,1.58s.58.86,0,1.12-1.06-.23-1.12-1.12-.47-1.42-1-1.21c-1,.44-.77,1.06,1.27,3.61l1.51,1.87.69-2.86c.59-2.41.84-2.62,1.56-1.31,1.21,2.21,1.57,2.65,2.74,3.46a1.33,1.33,0,0,1,.52,1.75,1.06,1.06,0,0,0,.23,1.53c.49.32.41.79-.19,1.06s-1.19-.34-1.38-1.48c-.27-1.67-.61-1.71-2.44-.33-2.81,2.14-3.62,4.13-1.31,3.21,1-.38,1.32-.28.82.23s-.58,1.15-.19,1.41c2.34,1.6,3.6,5,2.43,6.52-.83,1.1-1.5,1.38-2.1.88s-.54-.22-.16.33a4.24,4.24,0,0,0,3.08,1.06c1.33,0,2.49.33,2.67.73s1.39.7,2.7.68c1.82,0,1.4.26-1.82,1.28-3.48,1.1-3.86,1.4-2.21,1.76,1.84.4,1.86.62.31,3.07-1.19,1.88-1.25,2.45-.19,2a2.08,2.08,0,0,0,1.37-1.84c-.08-.76.86-.81,2.69-.14,2.44.9,2.61,1.14,1.3,1.87a11.23,11.23,0,0,1-2.5,1,39.13,39.13,0,0,0-4.31,1.53c-1.81.73-3.8,1.16-4.37.95s-.2-.45.79-.51,1.66-.51,1.46-1c-.5-1.11-3.55-1-4.34.11a1.17,1.17,0,0,0,.36,1.58c.61.43.13.63-1.34.54-3.47-.22-4.46.56-2.91,2.29,1,1.16,1,1.7-.25,2.25s-1,.75,1.15.86c2.5.12,2.72-.1,2.3-2.36s-.33-2.25,1,.33c1,1.91,1.86,2.63,2.78,2.21.76-.34,1.3-.09,1.23.57s-1.06,1.28-2.23,1.41-2.16.8-2.26,1.53a2,2,0,0,1-1.92,1.42c-1,.07-1.67-.34-1.6-1a3.39,3.39,0,0,0-1.2-2.31,12.11,12.11,0,0,1-2-2.44,2.18,2.18,0,0,0-2.17-1c-1.33.2-1.3.28.29.64,1.36.3,1.59.64.91,1.34-1.11,1.16.55,5.45,1.88,4.85,1.18-.54,2.3,1.94,1.29,2.88-1.47,1.37,3.49,4.35,7.83,4.69,3.28.26,4.65-.07,5.61-1.35s1.4-1.42,1.91-.3c.34.77,1,1.09,1.49.71a1.48,1.48,0,0,1,1.88.33c.7.7.55,1-.5.93-.85,0-.21.33,1.46.86,3.8,1.2,6.1,0,6.63-3.32.29-1.87,1.07-2.85,2.42-3.08,1.9-.32,2-.23,1.25,2-.41,1.32-.48,2.21-.14,2.06l1-.46c.25-.11.31-.38.15-.68a4.65,4.65,0,0,1,.81-2.4c1.13-2,2.92-2.47,2.67-.69-.08.59.28.9.79.68,1.42-.62-1.93-4.56-5-5.91-2.41-1.06-2.56-1.3-1.23-1.9s1.19-.94-.23-2c-1.83-1.42-1.83-1.42,1.92-3.5.57-.32,1.53.32,2.08,1.4,1.18,2.32,3,3.19,2.87,1.36-.06-.72.7-1.64,1.72-2.1,1.44-.65,1.72-.48,1.34.82-.27.94-.11,1.78.37,2,1.2.44,4.22-1.06,3.84-1.91-.2-.43.25-1,1-1.37,2.66-1.2,1.48,1.71-1.35,3.34-3.08,1.77-4.74,4.18-3.45,5,.39.26.33.94-.15,1.48-1.42,1.62,2.81-1.92,4.82-4a11.46,11.46,0,0,1,3.85-2.56,5.78,5.78,0,0,0,3-3.25c.56-1.48,1.3-2.24,1.73-1.79.92,1,5.18-4.17,6.18-7.48a5.19,5.19,0,0,1,1.74-2.72c.6-.27.64-.76.11-1.12s.36-1.24,2.31-2.11c2.55-1.15,3-1.72,2.15-2.6s-.52-1.27,1.32-1.72a4.7,4.7,0,0,0,3.44-3.23c.75-2,1.32-2.45,2.22-1.87s1.38.35,2-1.37A5.29,5.29,0,0,1-5.24,349c.68-.3,1.1-1,.89-1.42s.37-.88,1.38-.92c1.38-.06,1.47-.36.43-1.42s-1.11-1.29.65-.8a9.26,9.26,0,0,1,3.59,2.16c1.74,1.76,3.84,1.09,4.84-1.57a4.24,4.24,0,0,1,1.86-2.11c.75-.37.94-.75.45-.92s-.38-1.19.16-2.26c1-1.93,1-1.95-.37-.81-.8.7-1.55.75-1.83.12s-.59-.46-.78.65-.47,1.34-.7.83a5.42,5.42,0,0,1-.1-2.61c.23-1.33.42-1.45.83-.53s1.06.77,2,0a2.24,2.24,0,0,1,3.61,2.17c-.11.79.11.78.66-.05s.9-.71,1.17.9c.19,1.14.74,2,1.2,1.76s1.11.21,1.46,1c.72,1.62-1.89,3.1-2.66,1.51q-.52-1.09-1,.78a2.54,2.54,0,0,1-1.79,2c-3,.3-1.84,3.09,1.92,4.51,2.09.8,4.18,2.26,4.62,3.23.53,1.19,1.15,1.44,1.86.74a1.36,1.36,0,0,1,1.87-.17c1.14,1.24,2.33-1.26,1.48-3.12s-3.85-2.89-4.38-1.49c-.21.55-.67-.06-1.05-1.42-.59-2.12-.25-2.6,2.86-4.07,4.71-2.23,5-2.5,3.84-3.28-.7-.46-1.25-.16-1.77.95-.61,1.31-.87,1.36-1.37.26s.3-1.73,2.89-2.78c2.24-.91,3.19-1.72,2.64-2.26-1.06-1.05,2.4-3.84,4-3.23,1.91.72,3-2.45,1.11-3.36-1.16-.57-1.33-1.22-.71-2.79.43-1.08,1-1.71,1.14-1.33s1.32.34,2.54-.12c1.73-.66,2.06-1.38,1.47-3.26-1-3.14.32-4.29,2.55-2.27,2.41,2.18,6.38,1.09,5.24-1.44a2.89,2.89,0,0,1,.29-3,2.08,2.08,0,0,0,.74-2c-.19-.44-.81-.33-1.27.22s-.44.16.09-.91.72-2.09.39-2.21.69-.61,2.23-1.06c2.25-.65,2.6-1.05,1.68-1.93-.74-.7-.58-1.61.45-2.5s1.43-1.81,1.2-2.32,1.44-1.57,4.27-2.53c4.33-1.48,4.67-1.8,4.54-4.19-.18-3.18-.39-3.62-1.2-2.44-1,1.42-2.82.78-2.92-1-.07-1.29.16-1.43,1.21-.75s1.07.34.47-1c-.86-2,1.61-5,3.2-3.88,1.4.94,3.55-2.62,2.71-4.49s.25-4.83,1.71-4.36c.58.19.55,0-.06-.46s-.66-1-.11-1.28.63-.7.08-1a1.68,1.68,0,0,0-2,.5c-.75.75-1.13.55-1.21-.64s.32-1.61,1.57-1.26,1.65.07,1.5-1.39c-.48-4.48.18-11.56,1.21-13.11a3.76,3.76,0,0,0,.65-2.88,1.15,1.15,0,0,1,.43-1.52c.64-.25.38-.83-.79-1.73-2.32-1.81-2.34-2-.2-3.43,1-.66,1.51-1.61,1.11-2.18s0-1.33.94-1.75a3.79,3.79,0,0,0,1.68-3.31c0-2.15-.28-2.51-1.88-2.24-2.28.38-3.46-1.37-1.52-2.25.76-.34,1.54-.2,1.78.33.73,1.62,3.7-7.38,3.64-11,0-1.92.25-3.58.62-3.75a.85.85,0,0,0,.28-1.19c-.21-.48-1.63-.34-3.07.31s-2.85.81-3,.35c-.4-.87,1.19-2.11,3.69-2.89,1.67-.52,3.12-4.87,2.62-7.8a10,10,0,0,1,.17-4.26,2.87,2.87,0,0,0-.23-2.65c-.45-.52-.38-1.16.14-1.39s.54-1.42,0-2.69a3.37,3.37,0,0,1,.09-3.41,1.58,1.58,0,0,0,0-2.25,3,3,0,0,1-.63-2.77c.36-1.31,0-1.91-1.46-2.66-1.06-.54-1.39-.92-.73-.84,1.91.22,3.14-3,2.43-6.35a13.86,13.86,0,0,1,.17-5.79c.6-2,.39-3-.82-4s-1.35-1.27,0-1.34,1.52-1.31.3-3.21c-.24-.38-.06-.79.44-1s.4-.84-.17-1.4a1.71,1.71,0,0,1-.35-2,1.71,1.71,0,0,0-.44-2.1c-.64-.63-.67-1.28-.08-1.55s.5-1-.33-2-1-1.71-.34-2,.49-1-.3-1.91a2.29,2.29,0,0,1,0-3.22,2.26,2.26,0,0,0,.24-2.87c-.64-.63-.63-1.29,0-1.58A.82.82,0,0,0,69.5,148a6.42,6.42,0,0,1-1-3.56,23.31,23.31,0,0,0-1.07-5.38c-1.55-4.51-1.47-8.73.16-8.53.75.09.18-.6-1.22-1.5-3.1-2-3.48-2.54-1.77-2.65,2.78-.17,2.53-13.11-.26-13.51-.85-.12-.8-.42.12-.85,1.7-.77,1.72-3.72,0-3.56-.7.07-.67-.94.06-2.48a6,6,0,0,0,.52-4.16c-.38-.85-.29-1.76.19-2s.69-1.48.43-2.89a5.71,5.71,0,0,1,.73-4,5.4,5.4,0,0,0,.81-3.63c-.29-1.61-.66-1.81-1.63-.9-1.15,1.08-1.17,1-.22-.72.56-1,.64-2,.18-2.22s-.4-.54.11-.77a1.73,1.73,0,0,1,1.81.52c.6.68,1.08.34,1.7-1.23a5.44,5.44,0,0,0,.47-3c-.21-.47.16-1.45.84-2.21,1-1.17.77-1.36-2-1.35-1.73,0-2.67-.25-2-.56s.86-.77.46-1-.78-1.54-.86-2.93c-.13-2.09.16-2.4,1.77-2s1.85.13,1.54-1.67c-.26-1.51.16-2.24,1.38-2.38,2.32-.27,3.43-3.7,1.14-3.57-.89.05-1.14.44-.63,1S71,65.67,69,66.64c-1.67.81-3.21,1.13-3.4.71a.89.89,0,0,1,.55-1.16,1.13,1.13,0,0,0,.39-1.5c-.61-1.36,1.75-5,3.12-4.86s5.16-2.82,4.77-3.69c-.18-.39-.86-.43-1.62-.09s-1.14,1-.9,1.53-.25.69-1.22.34c-1.31-.47-1.46-.85-.71-1.92a3.38,3.38,0,0,1,2.07-1.39c.65,0,.77-1.06.27-2.37S71.2,50.34,70.8,51s-.6.42-.51-.33-.25-1.16-.78-.93-1.1-.32-1.32-1.24c-.68-2.85-.54-5.36.32-5.75.48-.22.79.56.72,1.82-.1,1.68.15,2.1,1,1.77s1-.26.23.51a1,1,0,0,0-.09,1.51,1.65,1.65,0,0,0,2-.52c.63-.64,1.31-.6,1.62.09.43.95.58.86.77-.45a2.66,2.66,0,0,0-.52-2.17c-.39-.27,0-.87.87-1.25s2.27-2.31,3.06-4.19c1.33-3.16,1.28-3.53-.62-4.35-3.2-1.39-3.43-2.94-.51-3.48,2.07-.39,2.24-.66,1.11-1.74-1-.9-.94-1.24,0-1.13.76.09,1.17-.23,1-.73s.19-.94,1-1,1.64-1,2-2.21c.39-1.4.32-1.71-.21-.92-.43.63-1,.72-1.24.2a1.31,1.31,0,0,1,.83-1.55,2.7,2.7,0,0,0,1.43-1.82c.1-.81-.39-.75-1.4.17-1.39,1.27-1.69,1.07-2.8-1.8-.67-1.73-.94-3.37-.58-3.55.63-.32,1.53.88,2.14,2.85.19.6,1.25.93,2.39.76a2.46,2.46,0,0,0,2.17-2.66A25.53,25.53,0,0,1,86,11.26c1.78-5.19,1.52-9.86-.7-13-1.08-1.55-2.41-2.69-2.89-2.47S82.18-3,83.07-1.9C84.32-.32,84.27.21,82.83.86a1.71,1.71,0,0,1-2.56-.94c-.54-1.19-1.14-1.38-1.91-.62S77,0,76.79-.56s-1.17-.67-2-.31A16,16,0,0,1,70-.17l-3.14,0,2.23-2.74c2.17-2.66,2.29-2.69,4.06-1,1,1,2.32,1.56,2.92,1.29.85-.38.77-.62-.35-1a2.51,2.51,0,0,1-1.52-2c0-.84-1.36-2-3-2.73-3-1.22-3-1.22-1.38-2.59,1.24-1.08,1.23-1.73,0-3-.9-.92-2.07-1.49-2.67-1.3l-2.07.63c-1.41.44-2.15-2.07-1-3.27,1-1-.47-3.76-1.66-3-1.6,1-2.13.57-1.69-1.31.27-1.14.28-1.6,0-1a1.83,1.83,0,0,1-2,.6c-1.05-.28-1.62,0-1.73.93s.12.95.68.15.88-.75,1,.23a6.14,6.14,0,0,1-1.5,3.45c-1.51,1.87-1.07,2.4.88,1.06.86-.59,4.51,1.43,4.38,2.42-.05.43-1,.9-2.09,1.09s-1.79.77-1.53,1.35.7.66,1,.15.55.31.53,1.75-.44,2.57-.92,2.5-.71.22-.48.73A2.1,2.1,0,0,0,61-6c2.35-.13,2.55,1.36.38,2.88A2.94,2.94,0,0,1,57-6.92c1.55-2.69.53-4.25-2.64-4-2.28.14-2.69-.15-2.27-1.64s.21-1.69-1.18-1.15c-1.23.48-1.17.23.24-.95,1.71-1.42,2.08-5.64.4-4.54s-4.94.7-5.73-.79c-.48-.9-.43-1.59.1-1.52a1.07,1.07,0,0,0,1.13-1c.08-.64-1.32-1.21-3.2-1.32-3.45-.18-5.48-2.37-3.17-3.41s.65-2.42-2.86-2.74c-2.45-.23-3.53-.91-4.18-2.66-1.1-3-3-4.26-4.34-2.9a.85.85,0,0,1-1.55-.27c-.34-.76-1-.85-1.63-.23a1.8,1.8,0,0,1-2.1.33c-.57-.39-.27-1,.66-1.47a4.39,4.39,0,0,0,2-1.5c.39-1-3.6-4.15-4.71-3.66-1.61.72-3.23-1.5-2.38-3.27.6-1.26.11-1.81-2.72-3.09-1.93-.87-4-1.32-4.64-1-1.59.71-2.19-.78-.86-2.13s-.7-3.6-2.48-2.8a5,5,0,0,1-3.1-.08c-1.53-.55-1.66-.84-.76-1.8s.7-1.39-.76-2.36c-1-.67-2.21-.82-2.69-.32a1.55,1.55,0,0,1-2.07-.29c-.64-.64-1.5-.75-1.84-.25s-.84.53-1.1-.06.2-1.58,1.09-2.33c1.52-1.28,1.49-1.33-1.08-2.06-1.87-.54-3-.31-3.82.8-1,1.34-1.37,1.12-2.52-1.62-.86-2.07-.91-3.37-.14-3.72,2.56-1.15-.8-1.79-4.35-.83-2.09.57-4.28.74-4.83.38s-.41-.7.49-.73,1.53-1,1.59-2.71c.07-2.38-.16-2.62-2.4-2.49-3.08.18-6.74-2.32-4.72-3.23.76-.34,1.17-1,.94-1.55a.89.89,0,0,0-1.41-.18c-.55.42-2.94.39-5.39-.07-3.79-.71-4.28-1.07-3.55-2.57,1.08-2.23.49-3.45-1.29-2.65-.94.42-1.48.09-1.55-.93s-.37-1.2-.71-.69c-.76,1.11-1,.75-1.16-1.53A2.59,2.59,0,0,1-37-90.87c.94-.42.85-1.3-.29-3-.88-1.33-1.34-2.86-1-3.37s0-1.58-.71-2.38-.92-1.63-.17-2,.53-.75-1-1.31-2.39-.35-2.95.47c-1.59,2.35-2.75,2.5-3.66.46-.69-1.52-.45-2,1.1-2.3,2-.35,3-3,1.51-4-1.27-.86-7.6,2.91-7,4.18a1.14,1.14,0,0,1-.35,1.59c-.51.23-1,.09-1.09-.33-.5-1.92-1.49-2.79-2.59-2.3a8.29,8.29,0,0,1-4.07-.31,9.92,9.92,0,0,0-3.38-.59c-1.08.55-2.75,4.37-1.71,3.9.59-.27,1,.05,1,.69-.26,2-2.63,2.41-2.74.52-.07-1.29-.43-1.45-1.3-.59-.63.64-1.56.79-2,.33-1-1.12-7.87,2-8.88,4.09-1.25,2.55-3.65,1.45-4.38-2-.36-1.68-.14-3,.48-2.93s.54-.85-.28-2.21c-1.19-2-1-2.92,1.11-5.7,1.41-1.86,2.3-3.84,2-4.48s0-1.07.58-1c1.13.16,3.47-2.7,4.87-5.94.46-1.07,1.72-3.89,2.75-6.14s1.67-4.87,1.4-5.68c-1.22-3.74-1.32-4.3-.78-4.49,1.32-.47,3.87-3.41,3.56-4.11-.19-.42.21-1,.89-1.32s1.26-2.2,1.29-4.25c.08-4.12-.57-6.15-1.52-4.74s-1.08.3-.25-1.91c.56-1.48.46-1.94-.35-1.58-.63.28-.63-.39,0-1.49,1.23-2.17,6.21-3.44,8.2-2.09a1.74,1.74,0,0,0,2.1-.19c1.3-1.19,5.82.53,5.6,2.13-.1.76.13.85.55.21s1.06-.53,1.47.21a9.3,9.3,0,0,0,3.37,3.89c1.54,1.14,1.92,1.08,2.68-.44a3.38,3.38,0,0,1,2.22-1.87c.84-.06.8.19-.11.66a3,3,0,0,0-1.6,1.84c-.25,1.75,2.9,5.13,4.21,4.54.73-.33,1.62.19,2.07,1.2s1.19,1.66,1.7,1.5c3.48-1.1,5-2.09,4.37-2.9a.91.91,0,0,1,.21-1.42c.54-.24,1.05.5,1.2,1.76s.51,1.81.91,1.22,1.1-.5,1.74.13c.79.78.46,1.37-1.15,2.1a6.22,6.22,0,0,0-3,3.79l-.74,2.78-.63-2.67c-.67-2.86-1.84-3.06-2.82-.47-.48,1.25-.76,1.26-1.3.08a1.59,1.59,0,0,1,.67-2.14c1.14-.52,1-.84-1.17-2-3.08-1.72-3.38-1.23-1.72,2.82.82,2,1.83,3.07,2.82,3,1.31-.07,1.38.25.48,2.08s-.93,2,.31.93c.8-.71,1.31-.77,1.22-.13a2.54,2.54,0,0,1-1.49,1.68c-1,.47-.73.85,1.35,1.74,1.5.66,2.81.71,3,.13s-.29-1-1-.94c-1.07.08-1.24-.26-.85-1.66.69-2.46,1.93-2.6,2.7-.29.42,1.24,1.14,1.82,1.72,1.4,1.43-1,2.75,2.25,1.75,4.33-.47,1-1,1.41-1.25,1s-.49.07-.61,1.14a2.1,2.1,0,0,1-1.64,2A1.75,1.75,0,0,0-31-124.6c-.24,1.91,1,2,2.44.12a3.25,3.25,0,0,1,2.93-1.41c1.11.18,1.29.44.56.77a1.15,1.15,0,0,0-.69,1.43c.24.52.76.44,1.2-.18s.8-.52.86.68c.09,1.67.36,1.7,4,.37a1.18,1.18,0,0,0,.54-1.73c-.33-.74.3-2,1.45-2.79,1.54-1.12,1.77-2,.93-3.64-2-4-2.35-4.28-3.36-3.24a1.58,1.58,0,0,1-2.17-.18c-.95-.94-.67-1.36,1.3-2,3.14-1,3.11-2.81,0-2.83s-4.49-1.75-2.53-3.33c1.29-1,1.35-2,.28-4.38-1.53-3.39.32-4.72,2.29-1.64.76,1.18,1.48,1.36,2.27.56s1.09-.75,1,.12.21,1.13.76.88,1,.28,1,1.17c.08,1.22.42,1.28,1.49.25a13.4,13.4,0,0,0,2.11-2.69c.44-.82.87-1,1.12-.45a2.25,2.25,0,0,0,2.05.81c.9,0,1.23-.35.74-.69-1.09-.73-1.35-3.78-.35-4.22S-5.74-150.34-6-149c-.1.59-1.39,2-2.78,2.93-2,1.42-2.61,1.51-2.68.39s-.57-1-1.77-.07-1.3,1.85-.55,2.8c1.1,1.39.11,3.14-2.71,4.8-1.85,1.1-2.39,2.51-1.11,3,.52.19.93-.25.88-.94-.15-2.13,1.25-2.09,2.75.09.74,1.09,1,2.41.58,2.85s-.49.71.21.47,1.51-1.53,2.15-3.06c.88-2.11,1.36-2.47,2.19-1.65,1.13,1.12,3.84.33,3.26-1-.18-.41.25-1,.93-1.33,1.36-.61,2.11-4.48,1-4.92-.4-.15,0-.94.86-1.72,1.59-1.45,1.46-3.4-.18-2.67-.52.24-.6-.42-.17-1.5a4.94,4.94,0,0,1,1.7-2.35c.53-.23.55-1.26.06-2.37-.84-1.86,1-7.8,2.68-8.55A4.85,4.85,0,0,0,3-166.15c.67-1.7.59-1.85-.68-1.28C-.56-166.14.39-168.3,4-171.21c2.25-1.82,3.18-3.11,2.33-3.22s-.44-3,1.57-8.76c1.63-4.72,3.4-8.29,3.92-7.94s1.67-.26,2.84-1.74a12.32,12.32,0,0,1,3-2.89,2.21,2.21,0,0,0,1.05-2.1,2.63,2.63,0,0,1,1.46-2.3c.86-.38,1.85-2.1,2.18-3.78a23.79,23.79,0,0,1,1.35-4.59c.42-.83,1.49-3.16,2.4-5.21,1.12-2.5,2.29-3.77,3.64-3.93,1.16-.13,1.59-.5,1-.87s-.2-.91.68-1.22a1.3,1.3,0,0,0,.79-2.09c-.64-1.17-.16-1.82,2.13-2.85,2.8-1.26,4.93-4.48,4.13-6.25-.2-.45.21-1.11.89-1.42,2.12-.95,5.5-6.38,4.09-6.56a3.21,3.21,0,0,1-1.92-1.76c-.57-1.26-.17-1.74,1.86-2.21,1.76-.41,2.23-.85,1.48-1.38s-.69-1-.14-1.21.52-.75,0-1.08-.57-.82-.06-1.05.62-1.7.29-3.29c-.66-3.17.93-5.54,2.36-3.51.93,1.32,1.23.67,5.56-12.09,1.55-4.58,1.7-6.48.63-8.5-.74-1.4-1.15-2.67-.89-2.76a13.38,13.38,0,0,0,1.63-.8c1.67-.94-1.76-2.56-3.63-1.72-1.12.51-1.16.24-.24-1.57.59-1.17.66-1.6.14-.93-.65.84-.92.8-.81-.09a1.24,1.24,0,0,1,1.3-1.2c.61.08,1.51-.62,1.93-1.5ZM40.34-269.47c2.37-.4,2.91.08,1,.92a2.56,2.56,0,0,1-2.14,0c-.5-.32,0-.72,1.11-.91Zm2.22,9c.38-.19.83,0,1.06.55s-.71,1.37-2.08,1.95c-2.22,1-2.33.9-1.06-.54a11.4,11.4,0,0,1,2.08-2ZM21.21-286.59a18.72,18.72,0,0,0,4.21-.41c3.48-.65,3.46-.46-.21,1.58a7.47,7.47,0,0,1-4.1,1.1c-1.83-.44-1.74-2.51.1-2.27Zm15.91,30.36c1.55.59,1.42,1.8-.27,2.57-1,.46-1.93.47-2.13,0-.46-1,1.37-3,2.4-2.61Zm-.86,22.67c.65.09,1.21.32,1.31.54s-.21.55-.72.78a1,1,0,0,1-1.31-.53c-.23-.51.1-.87.72-.79ZM8.13-277.92c.17-.44.61,0,1,.93s.29,1.36-.3.8a2,2,0,0,1-.68-1.73ZM-3.64-296.48c.9-.44,1.31.67,1,2.74-.19,1.41-.55,1.62-1.9,1.1s-1.51-.86-.73-2.07a6.25,6.25,0,0,1,1.6-1.77ZM-34.26-339.6c.33-.85.86-1.1,1.47-.7a1.19,1.19,0,0,1,.28,1.64c-1,1.45-2.38.7-1.75-.94Zm-.43,5.62c1-.46,1.93-.48,2.12,0,.46,1-1.4,3-2.43,2.62-1.53-.59-1.39-1.82.31-2.58Zm14.41,39.06a1.79,1.79,0,0,0,1.58,1.12c.56-.05.48.72-.2,1.72-1.07,1.61-1.38,1.59-2.59-.1-.83-1.16-1-2.34-.36-2.95a.89.89,0,0,1,1.57.21ZM-38.43-328c1.52-.69,1.84,1.37.43,2.78a5.55,5.55,0,0,0-1.45,2.32c-.11.6-.62.78-1.19.43s-.3-1.25.57-2,1.38-1.79,1.17-2.26a.88.88,0,0,1,.47-1.23Zm7.22,32.7c.65.09,1.21.32,1.31.54s-.21.55-.72.78a1,1,0,0,1-1.31-.53c-.23-.51.1-.87.72-.79Zm3.53,15c1.1-.5,2.53.56,2.14,1.59-.54,1.43-1.77,1.51-2.38.15-.34-.77-.24-1.53.24-1.74Zm-25.14-35.81a1.55,1.55,0,0,1,2,.85c.42.93,0,1.47-1,1.54a9.65,9.65,0,0,0-2.12.29c-.24.1-.36-.3-.27-.95a2.5,2.5,0,0,1,1.47-1.73Zm-8.09-10.16c2.32-1.17,3.7-.37,2.48,1.44-.37.54-.77.57-1,.06s-1.19-.72-2.15-.57-.84-.18.66-.93ZM3.46-183.69c1.65-.18,3.12,2.5,1.72,3.14-.68.3-1.53-.23-2-1.25s-.34-1.83.27-1.89ZM83.58,4.09c.61-1.61,1.76.84,1.54,3.29l-.25,2.76-.76-2.72a9.13,9.13,0,0,1-.53-3.33ZM-66.66-326.48c.36-.54.91-.36,1.25.4s.22,1.54-.28,1.76a.91.91,0,0,1-1.25-.4,2,2,0,0,1,.28-1.76ZM-.26-173.82c.36-.17,1,.5,1.46,1.43.57,1.27.35,1.62-.84,1.3-1.5-.4-1.89-2.16-.62-2.73Zm-69.16-152c.47-.21,1.06.19,1.4.95a1.4,1.4,0,0,1-.72,1.91c-.77.34-1.35-.06-1.4-1a2,2,0,0,1,.72-1.9ZM76.94,9.06c3.06-.89,5.43,2.72,2.61,4-1.11.49-1.82.53-1.65.07s-.49-1.41-1.41-2.11C75,9.85,75,9.61,76.94,9.06ZM75.48,5.82c.36-.55.76-.57,1-.06a2.07,2.07,0,0,1-.75,2c-.7.7-1.35.62-1.72-.2a1.56,1.56,0,0,0-2-.66c-2.2,1-1.83-1.8.42-3.15,1.45-.87,1.78-.83,1.18.13-.93,1.5.93,3.42,1.91,2ZM-11.23-179.6c1-.46,2-.42,2.19.09s-.36,1.23-1.38,1.69-2,.42-2.19-.09.37-1.23,1.38-1.69ZM-61.82-290.67a2.69,2.69,0,0,1,2.23.07c.53.36.14,1-.87,1.47s-2,.43-2.23-.07.19-1.16.87-1.47ZM61.3-18.32a1,1,0,0,1,1.31.53c.23.51-.1.87-.72.78a1.93,1.93,0,0,1-1.31-.53c-.1-.22.21-.55.72-.78Zm1.77,6.19a2,2,0,0,1,1.31.53c.09.22-.21.56-.72.79a1,1,0,0,1-1.31-.54c-.23-.5.09-.86.72-.78Zm-73.26-156.1a5.92,5.92,0,0,1,2.86-.22c1.4.22,1.25.51-.7,1.39-1.36.61-2.64.71-2.86.21a1.13,1.13,0,0,1,.7-1.38Zm1.5,5.49c1.09-.75,2.11-.88,2.37-.3.53,1.19-2.28,3-3.46,2.17-.43-.29.08-1.17,1.09-1.87Zm-77-169.7c2.21-1,4-.16,3,1.37-.39.58-1.7.71-2.78.28-1.87-.74-1.88-.89-.19-1.65ZM73.73,18.93a1,1,0,0,1,1.33.47c.22.49-.24,1.18-1,1.52s-1,.91-.48,1.24c1,.67-.12,1.56-1.38,1.09-1-.38.17-3.71,1.53-4.32Zm-2.5-3.16c.38-.17,1.29.23,1.92.87.92.91.82,1.09-.42.75-.93-.25-1.81,0-2.06.52s-.37.32-.3-.43a2.33,2.33,0,0,1,.86-1.71ZM63.69-1.8c1.58-1,1.79-.92,1.24.51-.37,1-.29,1.46.65,4.1s-1.2,1.35-2.24-1.24c-.62-1.56-.49-2.83.35-3.37ZM-19.56-187.69c.35-.21,1,.05,1.52.55s.3,1-.39,1.06c-1.36.14-2.16-1-1.13-1.61Zm2.91,10.89a2,2,0,0,1,1.74-.68c.44.17,0,.61-.94,1s-1.36.29-.8-.3Zm4.17,17.08c.91-1.92,1-1.89,1.09.9.06,1.1-.18,2.1-.55,2.24a7.18,7.18,0,0,0-1.78,1.36C-15.9-153-17-154-15.63-157c.78-1.67,1.6-2.55,1.86-2s.72.47,1.29-.75Zm-15.08-29.66c2.29-1,4.09.13,2.58,1.66a3.28,3.28,0,0,1-3.27.33c-1.72-.66-2-1.13-1.48-2.39s.63-1.22.53-.19.45,1.12,1.64.59Zm19.64,49.09a3.21,3.21,0,0,1,2.37-1.88c1-.18,1.42-.08.87.23A13.51,13.51,0,0,0-7-140.06c-1.07,1-1.27,1-.87-.23ZM73.78,35.48a2.06,2.06,0,0,1,1.52,1c.58,1.29-.19,1.31-1.46.05-.71-.71-.73-1.14-.06-1.05ZM-96.76-338.63c.72-1.1.72-1.1.77,1.73,0,1.72-.09,1.85-.67.66a2.7,2.7,0,0,1-.1-2.39Zm-4.31-2.66c.9-.49,1.86-.52,2.06-.06.46,1-1.95,2.18-3,1.46-.39-.27,0-.91,1-1.4Zm1.63,3.29c.36-.16,1,.29,1.25,1a2.47,2.47,0,0,1,.09,2c-.27.4-.83,0-1.25-1s-.46-1.83-.09-2ZM-37-187.81c2.4-1,4.16-.71,3.31.56-.67,1-4.82,1.76-5.19.94-.15-.33.68-1,1.88-1.5Zm-25.52-62.94a.93.93,0,0,1,1.27.45,2,2,0,0,1-.26,1.8c-.35.52-.93.32-1.27-.45s-.23-1.58.26-1.8Zm-44.26-95.75c2-.92,2.1-.88,1.84,1-.14,1-.65,1.11-1.91.56s-1.38-.91.07-1.56Zm58,148.32c.33-.84.87-1.4,1.21-1.28.87.31.31,1.82-.88,2.35-.6.27-.72-.12-.33-1.07Zm-52.71-116.44c.77-.35,1.59-.23,1.8.26a.93.93,0,0,1-.44,1.27,2,2,0,0,1-1.8-.26c-.52-.35-.32-.93.44-1.27ZM-116-342.11c.14-.37,1-.4,1.86-.07,1.29.49,1.25.62-.26.67-1,0-1.74-.24-1.6-.6Zm94.58,210c.22-.09.56.21.79.72a1,1,0,0,1-.54,1.31c-.51.23-.86-.09-.78-.72a2,2,0,0,1,.53-1.31Zm-84.77-183.51c1.19-.53,2.39-.58,2.61-.1s-.62,1.35-1.81,1.88-2.39.58-2.6.11.61-1.35,1.8-1.89Zm78.61,173.44c.5-.23,1.15.19,1.5.95s.44,1.43.23,1.53-.87-.32-1.5-1-.73-1.3-.23-1.52Zm-100-220.65a1.63,1.63,0,0,1,2.09.79c.35.77,0,1.5-.62,1.57-1.86.17-3-1.67-1.47-2.36Zm75.65,173.54A8,8,0,0,1-49-186.12c1.2,2.22,1.16,2.58-.26,2.16a6.25,6.25,0,0,1-2.93-3.22c-.91-2-.85-2.58.26-2.16Zm-41.2-84.08c1-.45,2-.42,2.18.09s-.36,1.24-1.38,1.7-2,.42-2.18-.09.36-1.24,1.38-1.7Zm-37.09-83.32c.89-.05,1.85.26,2,.66.55,1.22-1.06,1.6-2.91.7s-1.6-1.21.88-1.36Zm-1,7.94c1.47.16,1.44.49-.08,1.17-.68.31-1.21.14-1.13-.36a1,1,0,0,1,1.21-.81Zm-6.05-11.85c1-.45,1.21,1.32.36,3.06-1.17,2.39-2.56,1.64-1.61-.87a5.54,5.54,0,0,1,1.25-2.19ZM15.45-17c1.72-.77,1.83,0,.28,2-1.1,1.42-1.37,1.45-1.45.16A2.29,2.29,0,0,1,15.45-17ZM54.33,75.8c1.14-.51,1.18-.42.84,1.77-.23,1.52-.37,1.54-1,.18-.38-.84-.31-1.74.14-2ZM-142.26-358a8.76,8.76,0,0,1,2,2.31c1.08,1.55,1.08,2.16,0,2.22-.89.06-1.66-.83-2-2.31-.31-1.29-.32-2.31,0-2.22Zm80.77,183.88c2.12-.95,2.66-.6,1.58,1a1.71,1.71,0,0,1-2.1.43c-1.06-.43-.93-.81.52-1.46Zm-47.68-106.51a2.06,2.06,0,0,1,1.52,1c.58,1.29-.19,1.31-1.46.05-.7-.71-.73-1.14-.06-1.05Zm5,16a1.93,1.93,0,0,1,1.31.53c.1.22-.21.55-.72.78a1,1,0,0,1-1.31-.53c-.23-.51.1-.86.72-.78Zm44,100.2c1.6.19,1.59.81,0,1.54-.76.34-1.29.11-1.21-.53a1.12,1.12,0,0,1,1.23-1Zm-88.33-193.34a2.37,2.37,0,0,1,2.05.81c.71.71.68,1.25-.07,1.32-1.56.15-3.18-1.59-2-2.13Zm-4.31-7.65c1.7-.76,2.89-.73,3.25.07s-.09,1.39-1.42,1.61c-1.14.19-1.79.77-1.53,1.35s0,1-.68.87a1.26,1.26,0,0,1-1-1.39c.1-.81-.3-.79-1.14.06s-1.35.84-1.41.17.23-1.23.58-1.33,1.9-.76,3.34-1.41Zm-2.9-3.89c.14-1,.56-1.28,1.18-.84a1.21,1.21,0,0,1,.29,1.67c-.93,1.35-1.7.91-1.47-.83Zm3.06,12.39c.76-.34,1.48-.21,1.71.3s-.44,1.27-1.46,1.73-1.8.32-1.72-.3a2.51,2.51,0,0,1,1.47-1.73Zm83.1,195.18c0-.6,1.16-.79,2.75-.42s2.61,1,2.3,1.47c-.81,1.19-4.94.33-5-1.05Zm-90.83-211c.51-.23,1-.24,1.07,0a2,2,0,0,1-.47,1.33c-.36.52-.84.53-1.07,0a1,1,0,0,1,.47-1.33Zm2.87,19.41a5.05,5.05,0,0,1,2.26,1.39c.16.36-.53.4-1.59.1a4,4,0,0,1-2.25-1.38c-.22-.48.48-.52,1.58-.11ZM59.93,136.74c.94-1.09,1.9-1.66,2.09-1.25.45,1-2.82,5.89-3.73,5.55-.4-.15-.23-.51.37-.78s.73-.73.31-1,0-1.44,1-2.52ZM14.7,37.94a2.11,2.11,0,0,1,1.85.24c.54.37.57.82.06,1A2.11,2.11,0,0,1,14.76,39c-.54-.37-.57-.82-.06-1.05ZM-22.15-45.42c.63-.64,1.13-1,1.14-.94.18,2.16,0,3-.7,3.27-1.31.59-1.63-1.12-.44-2.33ZM57.9,135c1.33-1.36,1.83-1,.79.6-.37.55-.95.9-1.29.77s-.12-.73.5-1.37ZM21.29,52.12c.48-.22,1.17.23,1.52,1s.11,1.34-.51,1.25a2,2,0,0,1-1.52-1,.93.93,0,0,1,.51-1.25ZM-37.62-78.77c.51-.23,1-.24,1.07,0s-.11.79-.47,1.33-.84.53-1.07,0a1,1,0,0,1,.47-1.33Zm-34.82-72.52c.9-.72,1.89-1,2.32-.74s0,1.11-.78,1.78-1.9,1-2.32.74-.12-1.05.78-1.78ZM61.86,149.43a1.52,1.52,0,0,0,1.46.74c1.36-.13.82,1.6-.71,2.29-2,.88-3-1.36-1.66-3.71,1-1.83,1.41-2.08,1.84-1.11.31.67.14,1.16-.38,1.08s-.78.2-.55.71ZM-75.84-159.86c.17-.43.63,0,1,1s.29,1.37-.3.8a2,2,0,0,1-.7-1.78Zm-95.68-206.85a3.7,3.7,0,0,0,2.65,1.92c1.5.14,1.4.39-.56,1.26-1.35.61-2.3.8-2.16.41s-.6-1-1.58-1.37c-2.16-.82-2.36-2.51-.41-3.39.68-.31,1.64.23,2.06,1.17ZM-69.9-144.63c.22-.09.55.21.78.72a1,1,0,0,1-.53,1.31c-.51.23-.87-.09-.78-.72a1.93,1.93,0,0,1,.53-1.31Zm-4.86-9.54a.93.93,0,0,1,1.25.51c.22.48-.23,1.17-1,1.52s-1.33.11-1.25-.51a2.06,2.06,0,0,1,1-1.52Zm-84.18-183.22a2.37,2.37,0,0,1,2.09.79c.24.53-.35.92-1.45,1a10.33,10.33,0,0,0-3.41.81,2.89,2.89,0,0,1-2.45.14c-1-.68,2.64-2.56,5.22-2.71ZM64.38,160.91c1.69-.1,2,.22,1.14,1.41-.29.43-1,.31-1.59-.25s-.54-1.1.45-1.16ZM-82.44-162.85c.89-.06,1.65,0,1.74.23s-.44.61-1.2,1-1.53.24-1.74-.23.31-.9,1.2-.95Zm-55.92-125.3c.47-.44,1.11-.14,1.49.71s.19,1.54-.44,1.62a1.54,1.54,0,0,1-1.49-.7,1.65,1.65,0,0,1,.44-1.63ZM7.75,41.07a1,1,0,1,1-.49,1.29,1,1,0,0,1,.49-1.29ZM-177.6-367.86a2.06,2.06,0,0,1,1.74-.68c.44.17,0,.61-.94,1s-1.36.28-.8-.31ZM65.33,170.51c.29-.13.8.41,1.18,1.26s.3,1.34-.19,1.16-1.18.34-1.59,1.22-.85,1.3-1,1c-.34-.76.88-4.27,1.6-4.6ZM-78.52-145.19c.33-.86.86-1.43,1.2-1.3.88.33.34,1.89-.85,2.42-.59.27-.72-.13-.35-1.12Zm-96.13-217.93c.22-.09.56.21.79.72a1,1,0,0,1-.54,1.31c-.51.23-.86-.09-.78-.71a2,2,0,0,1,.53-1.32ZM62.88,168.35a1,1,0,1,1-.49,1.29,1,1,0,0,1,.49-1.29Zm-5.37-6.5a5.08,5.08,0,0,0,2.66.58c1.08-.07.95.2-.39.84s-2.2.45-2.66-.59-.27-1.25.39-.83Zm-3.83-13.94a1,1,0,0,1,1.31.53c.23.51-.1.87-.72.78a1.93,1.93,0,0,1-1.31-.53c-.1-.22.21-.55.72-.78Zm-140.58-307a3.84,3.84,0,0,1,2.25-1c.74,0,.33.41-.94,1s-1.84.59-1.31,0ZM-170.07-339.9c.11-.26,1-.15,1.9.24s1.32.89.85,1.1c-.94.42-3.05-.62-2.75-1.34Zm231.12,524c.41-1,1.42-1.5,3.48-1.67,2.87-.23,2.86-.21-.58,1.43-2.51,1.21-3.32,1.28-2.9.24ZM10,61.46c1.37-.62,1.43-.54,1.15,1.62a2.67,2.67,0,0,0,.55,2.16c.45.32.42.67-.06.89s-1.25-.61-1.82-1.89-.49-2.48.18-2.78ZM63.49,188.74c.9-.49,1.85-.52,2.06-.06.46,1-1.95,2.18-3,1.46-.39-.27,0-.91,1-1.4Zm-5.71-12.69c.48-.21,1.18.24,1.52,1s.11,1.34-.51,1.25a2,2,0,0,1-1.52-1,.93.93,0,0,1,.51-1.25Zm3.44,16.61c.79-.35,1.79.48,2.6,2.15.94,1.92.91,2.74-.11,2.8a1.27,1.27,0,0,0-1.32,1.26c.07.73-1,.82-2.76.22s-2.61-1.33-2.17-2,.92-.57,1.15-.06c.3.67.83.38,1.68-.91.67-1,.88-2.12.45-2.39s-.2-.78.48-1.09ZM-86.84-128.23a2.61,2.61,0,0,1,2.11-1.87c1-.18,1.35-.05.69.3a4.53,4.53,0,0,0-1.66,2.69c-.54,2.33-1.49,1.38-1.14-1.12ZM67.55,212.51c1.15.27,2.14.5,2.33.53s0,.51-.4,1.14c-.86,1.28-2,1-3.13-.87-.68-1.09-.51-1.21,1.2-.8Zm-2-5.18c.15-.39.9-.1,1.6.61,1,1.06,1,1.21-.28.73-.86-.32-1.47-.94-1.32-1.34ZM-69.71-90.6a1,1,0,0,1,1.44-.19c.5.35.16.81-.75,1.05a2.31,2.31,0,0,1-2.33-.53c-.38-.54-.3-.65.2-.24a1,1,0,0,0,1.44-.09ZM62.92,211.28c1.87,1.2,2.58,2.74,1.81,3.9s-1.79.37-2.25-1.35c-.18-.64-.49-1.72-.69-2.35-.26-.79.1-.86,1.13-.2ZM8,94.08c1.45.18,2,1.43,1.11,2.7-.95,1.42-2.08.83-2.2-1.16-.06-.9.46-1.62,1.09-1.54ZM-97.75-138.52a1.07,1.07,0,0,1,1.33.58c.22.5-.11.9-.7.82a2,2,0,0,1-1.33-.57c-.11-.25.19-.6.7-.83ZM53.07,204.24a2,2,0,0,1,1.76-.74c.42.14,0,.6-1,1s-1.35.32-.78-.26ZM-180.3-314.47a2.11,2.11,0,0,1,1.85.25c.54.36.57.81.06,1a2.08,2.08,0,0,1-1.84-.24c-.55-.37-.58-.82-.07-1.05ZM66.77,234.13a1,1,0,0,1,1.3.49,1,1,0,1,1-1.3-.49Zm-3.94-7.51c.77-.34,1.5-.3,1.69.11s-.27,1-1,1.33-1.5.3-1.68-.11.27-1,1-1.33Zm-93-202.75a2,2,0,0,1,1.84.24c.55.37.58.81.07,1a2.07,2.07,0,0,1-1.85-.24c-.54-.37-.57-.81-.06-1Zm-69.89-152c1.77-.13,2.32.37,1,.94a2,2,0,0,1-1.78-.21c-.55-.36-.24-.66.75-.73ZM51.45,209.48c1.41.2,1.76,1.42.92,3.19-.58,1.22-.85,1-1.32-.9-.33-1.38-.16-2.37.4-2.29Zm-44-97.6a.93.93,0,0,1,1.27.45,2,2,0,0,1-.26,1.8c-.35.52-.93.32-1.27-.45s-.23-1.58.26-1.8ZM-105.59-127.44c1.77,1.14,2.3,2.12,1.37,2.54-.43.2-1.2-.48-1.77-1.55-.79-1.48-.7-1.7.4-1ZM-8,95.24c-.07.56.67.91,1.62.75s1.29,0,.74.28a5.84,5.84,0,0,0-1.8,2.6c-.69,1.84-.88,1.77-2-.69-.84-1.87-.78-2.91.18-3.34.76-.35,1.33-.16,1.25.4ZM-33.95,43.05c.72-1.8,1.13-2,2.5-1.48,1.05.45,1.16.65.31.58a1.29,1.29,0,0,0-1.48,1,2.17,2.17,0,0,1-1.17,1.6c-.56.25-.64-.51-.16-1.72ZM59.3,248.46c1-.53,1.85-.64,2-.25s-.43,1.07-1.42,1.61-1.85.63-2,.25.43-1.08,1.42-1.61ZM63,256.19c.38-.2.83,0,1.06.54s-.49,1.29-1.59,1.79c-1.61.72-1.82.62-1.06-.55A6.17,6.17,0,0,1,63,256.19Zm-42.57-87.7a3.41,3.41,0,0,1,2.77-.63c.81.28.26.68-1.5,1.08-2,.47-2.37.35-1.27-.45Zm-4.15-15.57c.5-.23,1-.22,1.08,0a2,2,0,0,1-.45,1.38c-.34.49-.86.48-1.09,0a1.06,1.06,0,0,1,.46-1.37Zm38.75,94c.33-.86,1-1.51,1.55-1.56s.63.73.23,1.66c-.89,2.1-2.57,2-1.78-.1ZM-1.14,119a1,1,0,0,1,1.31.53c.23.51-.1.86-.72.78s-1.21-.31-1.31-.53.21-.56.72-.78Zm-25.1-57.26c1.16-.52,1.23,2.51.09,3.6-.71.68-1.76,1.73-2.35,2.37s-.4-.44.38-2.32a16.29,16.29,0,0,1,1.88-3.65ZM-207.58-338.6a4.62,4.62,0,0,1,2,.85c.09.19-.4.58-1.16.93a1.56,1.56,0,0,1-2-.85c-.54-1.19-.33-1.35,1.16-.93ZM57.28,252.12a.92.92,0,0,0,1.08,1c1-.09,1.08.14.46,1-.44.61-.45,1.39,0,1.69s0,.7-1.18.9c-2.6.45-3.45-1.56-1.65-3.89.84-1.08,1.41-1.41,1.3-.76Zm-10.5-21.85a1,1,0,0,1,1.31.54c.23.5-.1.86-.72.78a2,2,0,0,1-1.31-.53c-.1-.22.21-.56.72-.79Zm-176-391.06a1.07,1.07,0,0,1,1.33.58c.23.51-.1.9-.7.82a1.92,1.92,0,0,1-1.33-.57c-.1-.24.2-.6.7-.83Zm-83.17-177.8a1,1,0,0,1,1.31.53c.23.51-.1.87-.72.78a1.93,1.93,0,0,1-1.31-.53c-.1-.22.21-.55.72-.78ZM49.41,250.51a2,2,0,0,1,1.8.26c.52.35.32.93-.45,1.27s-1.58.23-1.8-.26a.93.93,0,0,1,.45-1.27Zm-69-155.89a2.09,2.09,0,0,1,1.3.49,2.14,2.14,0,0,1-.49,1.3c-.34.5-.95.27-1.3-.49s-.11-1.38.49-1.3Zm40.72,91.49c.71-.32,1,1.63.42,2.54-.33.5-.64.16-.68-.74s.07-1.71.26-1.8Zm-35.43-77.24c.27-1.51.38-1.54.95-.27a4.34,4.34,0,0,1-.14,3.08c-.85,1.75-.85,1.75-4-1.82-.64-.73-.47-1.13.52-1.2a2.11,2.11,0,0,1,1.94.91c.26.59.58.3.75-.7Zm-8.63-15.44c1.53-.69,2-.25,1.19,1a1.12,1.12,0,0,1-1.58.24c-.54-.38-.37-1,.39-1.29ZM49,261.05c.13-.55.85-.08,1.66,1.09,1.3,1.86,1.24,2-.72,1.9-1.16-.08-1.93-.58-1.66-1.08a8.57,8.57,0,0,0,.72-1.91ZM-226.64-350.58c.33-.86.85-1.44,1.2-1.31.88.34.34,1.89-.85,2.43-.6.26-.72-.14-.35-1.12ZM56.51,285.77a3.54,3.54,0,0,1,2.3-1.8c1.74-.43,1.75-.41.47.93-2.09,2.17-3.42,2.59-2.77.87Zm-12.83-33.7c.12-.87.55-1.16,1.14-.77s.46,1.14-.17,1.78c-1.68,1.7-2.77,2-3.25.93-.22-.48.18-.83.84-.73a1.33,1.33,0,0,0,1.44-1.21ZM-33.52,77.9c.51-.23,1-.24,1.06,0a1.92,1.92,0,0,1-.47,1.33c-.35.52-.83.53-1.06,0a1,1,0,0,1,.47-1.33ZM-107.61-84.25a1.93,1.93,0,0,1,1.31.53c.1.22-.21.55-.72.78a1,1,0,0,1-1.31-.53c-.23-.51.1-.87.72-.78Zm158,358.8a2.69,2.69,0,0,1,1.87-1.5c.74-.08.49.53-.56,1.37-1.34,1.08-1.71,1.12-1.31.13Zm-2.58-5.83a2,2,0,0,1,1.76-.74c.42.14,0,.61-1,1s-1.35.33-.78-.26Zm-3.19-2.33c.48-1.2,1-1.43,2.16-1s1.07.8-.62,1.56-2,.64-1.54-.58Zm-271.3-608.23a1,1,0,0,1,1.29.49,1,1,0,0,1-.49,1.29,1,1,0,0,1-1.29-.49,1,1,0,0,1,.49-1.29ZM-40.94,74.43c.79,0,1.65.27,1.83.68.46,1-1.93,2.18-3,1.45s-.52-2,1.17-2.13ZM-110-79c1.53-.69,1.59-.66,1.15.5s-1.78,1.72-2.16.87c-.19-.43.25-1,1-1.37Zm60.5,142.71a5.85,5.85,0,0,1,2.76-.32c1.29.19,1.36.41.45,1.33a2.5,2.5,0,0,1-2.76.32c-1.34-.62-1.43-.88-.45-1.33ZM52.27,288.14A2,2,0,0,1,54,287.4c.41.14,0,.6-1,1s-1.35.33-.78-.26ZM-74.37,6c2.83-.46,2.55.22-.69,1.64-2,.86-2.63.85-2.06,0A4.59,4.59,0,0,1-74.37,6ZM-231.43-345.42c2,1.94,2.27,2.55,1.19,3-.51.23-.87-.1-.79-.72s-.52-.83-1.37-.45c-1.27.57-1.44.36-1-1.25s.7-1.79,1.94-.62ZM43.73,273.37c.49-.22,1.27.44,1.73,1.46s.32,1.8-.3,1.72a2.51,2.51,0,0,1-1.73-1.47c-.34-.76-.22-1.48.3-1.71Zm-274.45-600c1.74.23,7.57,4.65,6.67,5.06a1,1,0,0,1-1.27-.55c-.23-.51-.69-.54-1-.07s-1.6-.19-2.82-1.48c-2.71-2.86-2.86-3.13-1.58-3Zm-5.34-21.57c.21-1.41.44-1.37,1.2.23.52,1.09.52,2.16,0,2.39-1.09.49-1.52-.44-1.2-2.62Zm-2.69,1.11a1.07,1.07,0,0,1,1.33.57c.23.51-.11.91-.7.83s-1.22-.33-1.33-.58.19-.59.7-.82ZM37.63,273c.76-.34,1.48-.22,1.71.3s-.15,1.14-.91,1.48-1.48.22-1.72-.3.15-1.14.92-1.48Zm-263-583.26c.51-.23,1-.22,1.08,0a1.9,1.9,0,0,1-.45,1.38c-.33.5-.85.49-1.08,0a1.08,1.08,0,0,1,.45-1.38ZM41.57,287.14a4.49,4.49,0,0,1,2.52,1.42c.23.51.23.79,0,.66l-2.52-1.41c-1.91-1.08-1.91-1.14,0-.67ZM-58.07,66.76a2,2,0,0,1,1.78-.7c.43.17,0,.63-1,1s-1.38.29-.81-.3ZM-239.6-329.17c5.09-1.38,6.56-.38,2.35,1.6-2.44,1.15-3.9,1.31-4.71.51-1-1-.64-1.3,2.36-2.11Zm-7.6-22.21a2.72,2.72,0,0,1,1.86,1.51c.34.77.11,1.29-.53,1.21a1.11,1.11,0,0,1-1-1.23c.07-.6-.57-1-1.47-1-2.46.14-2.75-1.35-.45-2.35,1.54-.68,1.84-.58,1.2.4s-.48,1.34.4,1.45Zm14,36.75c.9-.05,1.61.06,1.7.26s-.4.59-1.16.93-1.48.24-1.7-.26.27-.88,1.16-.93ZM42.47,307.63c1.63-.92,3.08-1.54,3.17-1.36.26.59-2.28,2.66-4.48,3.65-3.27,1.47-2.27-.28,1.31-2.29ZM.06,210.88c2-1.44,2.9-1.18,1.76.52-.73,1.09-7,2.82-7.95,2.19-.35-.24.31-.93,1.46-1.53s2.25-.79,2.42-.42,1.23,0,2.31-.76ZM-138.13-101.07c.22-.1.56.21.78.72a1,1,0,0,1-.53,1.31c-.51.23-.86-.1-.78-.72s.31-1.21.53-1.31Zm-23.38-49.46c.77-.34,1.49-.22,1.72.3s-.15,1.14-.92,1.48-1.48.22-1.71-.3.15-1.14.91-1.48Zm-15.19-30.6a2.77,2.77,0,0,1,2.47,0c1.18.8,0,1.3-2.2,1-1.51-.25-1.55-.39-.27-1Zm-60.61-136.44c.13-1,.55-1.28,1.18-.84a1.22,1.22,0,0,1,.29,1.67c-.93,1.35-1.71.9-1.47-.83ZM-50.68,99.49a2.05,2.05,0,0,1,1.8.27c.52.35.32.93-.45,1.27s-1.58.22-1.8-.26a.94.94,0,0,1,.45-1.28ZM-155.9-136.94a1,1,0,0,1,1.31.54c.23.5-.1.86-.72.78a2,2,0,0,1-1.31-.53c-.1-.22.21-.56.72-.79Zm-98.55-220.25c.24-.11.59.19.82.7a1.07,1.07,0,0,1-.57,1.33c-.51.23-.91-.11-.83-.7s.33-1.22.58-1.33ZM29.34,283.1c.48-1,.85-1.53.89-1.31s.19,1.13.35,2.09c.36,2.18,0,2.39-2.53,1.44-1.11-.42-1.57-1.09-1.16-1.67s.89-.51,1.16.09c.37.82.66.68,1.29-.64Zm-38-81.22c1.95-.2,3.14,1.55,1.54,2.27a1.6,1.6,0,0,1-2.07-.75c-.35-.76-.1-1.45.53-1.52ZM-199.16-223.55c.51-.23,1-.22,1.08,0a1.94,1.94,0,0,1-.45,1.37c-.34.5-.85.49-1.08,0a1.05,1.05,0,0,1,.45-1.37ZM-245.93-325.1c1.1-1.63,1.68-1,.84,1-.4.92-.93,1.34-1.13.88a2.16,2.16,0,0,1,.29-1.84Zm-14.45-34.73c.46-.21,1.15.4,1.6,1.42s.26,2-.47,2.35-1.38-.09-1.6-1.41c-.2-1.14,0-2.15.47-2.36Zm112,259.24c.78-1,1.76-1.6,2.15-1.33,1,.69-3.39,5.14-4.91,4.94-.69-.09-.73.15-.1.58s.71.91.17,1.15a1,1,0,0,1-1.3-.39,10,10,0,0,0-1.56-2c-1-1-.79-1.19,1.46-1.16a4.48,4.48,0,0,0,4.09-1.79Zm1.9,5.11a1.71,1.71,0,0,1,2-.5c.49.34.05,1-1,1.46-2.12,1-2.56.55-1-1ZM-16.55,200.27c3.66-.93,5.71-.09,4,1.63-.83.83-2.24.89-4.05.18L-19.39,201l2.84-.72ZM-114-22a2.08,2.08,0,0,1,1.84.24c.55.37.57.82.06,1a2.09,2.09,0,0,1-1.84-.24c-.54-.37-.57-.82-.06-1.05Zm-38.34-86.33c.16-.43.63,0,1,1s.28,1.37-.3.8a1.93,1.93,0,0,1-.7-1.78ZM-106.37-1.83c.76-.34,1.43-.44,1.53-.23s-.33.87-1,1.5-1.3.73-1.53.23.19-1.15,1-1.5Zm-41.17-91c1.37.52,3.11,5.33,2.1,5.79-.53.24-1.24,1.58-1.63,3.08-.54,2.08-1,2.47-2,1.79-.71-.49-.76-.8-.11-.71s.87-.44.56-1.12c-.42-.93-.77-.87-1.32.24-.43.86-.87,1.23-1,.87s-1,.39-1.73,1.6c-1.74,2.71-6.27,3.41-6.41,1-.05-.9-.46-1.43-.93-1.21a1.05,1.05,0,0,1-1.29-.6c-.25-.56.21-1,1.11-1s1.72-1.19,2-3.06c.43-2.54.26-3-1.13-3.21s-1.21-.43.31-1.12a3.47,3.47,0,0,1,2.92-.19,1.55,1.55,0,0,0,1.88-.13,2.88,2.88,0,0,1,2.65-.12c1.2.48,2,.25,2.43-.74.36-.76,1.08-1.27,1.54-1.1ZM-266-353a1,1,0,0,1,1.31.53c.23.51-.1.87-.72.78a1.93,1.93,0,0,1-1.31-.53c-.1-.22.21-.55.72-.78Zm9.46,26.8a8.64,8.64,0,0,1,1.77-1.56c.18,2.16-.07,2.81-1.06,2.69a1.35,1.35,0,0,0-1.37,1.26c-.13,1-.53,1.06-1.5.06-.69-.7-.91-1.19-.46-1s1.64-.45,2.62-1.44Zm-17.18-38.52c.33-.84.87-1.4,1.21-1.28.87.31.3,1.82-.88,2.35-.6.27-.72-.12-.33-1.07Zm258.32,578c1-.46,1.43.47,1.13,2.55-.15,1.09-.53,1.31-1.3.79a2,2,0,0,1,.17-3.34ZM-156.67-100.67c1.52.2,1.5.84,0,1.53-.77.34-1.29.11-1.21-.53a1.1,1.1,0,0,1,1.23-1ZM-277.45-365.41c.31-1.46.69-1.75,1.36-1,1.18,1.3,1.72,4.33.84,4.72-1.37.62-2.66-1.55-2.2-3.7ZM-265.8-340c1.58-1.13,2.33,1.67,1.23,4.61-.89,2.4-.79,2.7,1.56,4.6,2.92,2.36,3.21,2.84,2,3.4-1.78.8-6.07-2-5.61-3.7.22-.81.06-1.35-.35-1.16s-.37-.25.19-1.06.61-1.52.15-1.7-1.13.56-1.55,1.66c-.84,2.22-2.87,3.69-2.63,1.91.07-.59-.77-1.19-1.85-1.32-1.52-.17-1.17-.45,1.47-1.17s3.56-1.46,3.93-3.15A5.68,5.68,0,0,1-265.8-340Zm-1.52-2.82c.76-.35,1.48-.22,1.71.3s-.24.92-1.14,1-1.62-.08-1.72-.3.38-.63,1.15-1Zm289,642.9c.12-.77.48-.68.92.25a1.52,1.52,0,0,1-.62,2.11c-.77.35-1.21.95-1,1.38s-.25,1-1,1.37c-2.05.92-2.19-.55-.22-2.29a6.59,6.59,0,0,0,1.95-2.82Zm-45.31-99.21a1.43,1.43,0,0,1,1.88.78c1,2.14-3.42,3.58-5,1.64-1-1.27-1-1.67.25-1.75a9.9,9.9,0,0,0,2.86-.67Zm2.23,6.54c1-.47,1.83,2.25.91,3.17-.59.59-1,.25-1.25-1-.19-1,0-2,.34-2.19ZM-201-190.61c.77-.35,1.34-.47,1.36-.3.38,3.09-1,4.6-2.06,2.25a1.45,1.45,0,0,1,.7-2Zm-79.86-178.72c1.4.17,2.13,1.63,1.06,2.11-.8.36-2.79-1.19-3.47-2.72a1,1,0,0,1,.55-1.27c.51-.23.87.07.8.66a1.16,1.16,0,0,0,1.06,1.22ZM-6.62,242.52c.2-1.33.41-1.26,1,.33s.21,2.17-1.19,2.58-2.29-.2-3.87-3.16c-1.71-3.21-1.72-3.64-.12-3.21a5.51,5.51,0,0,1,2.91,2.82c.8,1.79,1.11,1.94,1.3.64ZM-132-37.08c.17-.44.61,0,1,.94s.28,1.36-.31.8a2.06,2.06,0,0,1-.68-1.74Zm8.22,21.66c.51-.23,1-.22,1.08,0a2,2,0,0,1-.45,1.38c-.34.49-.85.48-1.08,0a1.06,1.06,0,0,1,.45-1.37ZM-284.61-367.53c1.24-.2,2.53.17,2.82.81.8,1.78-.83,2.25-4.07,1.18-2.82-.94-2.55-1.37,1.25-2ZM25.58,321.21a1,1,0,0,1,1.31.54c.23.51-.1.86-.72.78a2,2,0,0,1-1.31-.53c-.09-.22.21-.56.72-.79Zm-34-73.14c2.12-1,2.12-1,1.17,1-.42.88-1.11,1.4-1.6,1.21-1.52-.58-1.36-1.43.43-2.23Zm-280-618.66c1.61-1,3.05-1.5,3.17-1.22.27.59.27.59-1.34,1.78-.69.51-1.54,1.18-2,1.54-.64.56-3.27.43-8-.39-.24-.05-.36-.63-.27-1.28.23-1.6,2.87-1.6,4.31,0,.9,1,1.86.9,4.12-.43ZM-31.33,195.75c.72-.32,1.11,1.57.5,2.49-.33.51-.66.18-.72-.7s0-1.7.22-1.79Zm54,122.47c.21-.09.55.21.78.72a1,1,0,0,1-.53,1.31c-.51.23-.87-.09-.79-.72s.32-1.21.54-1.31Zm-6.25-9.68a2,2,0,0,1,1.76-.74c.42.14,0,.6-1,1s-1.35.32-.78-.26Zm-52.4-118.16c.76-.34,1.48-.22,1.71.3s-.15,1.14-.91,1.48-1.48.22-1.72-.3.15-1.13.92-1.48ZM-266.65-321.15a1.94,1.94,0,0,1,1.32.53c.09.22-.21.55-.72.78a1,1,0,0,1-1.31-.53c-.23-.51.09-.87.71-.78ZM-89.63,76c1.79-.1,2.35.43,1.07,1a2,2,0,0,1-1.8-.26c-.56-.37-.26-.68.73-.74Zm-68-152.16c1.29-.58,1.74.91.83,2.75-.62,1.26-1,1.32-1.78.23-1.71-2.44-5.88-.11-7.48,4.18-1.06,2.83-1.65,3.52-2.12,2.49-.69-1.53-1.83-1.29-2.52.52a1.88,1.88,0,0,1-2.21,1c-1.4-.19-1.36-.42.24-1.18a7.79,7.79,0,0,0,3-3.86c1.37-3.78,3.12-5.49,4.93-4.84a1.91,1.91,0,0,0,2.12-.73c.55-.87.23-1.18-1.15-1.07s-2.42-.79-3.87-3.51c-1.67-3.12-1.7-3.59-.21-3.17a3.9,3.9,0,0,0,3.14-.75,4.27,4.27,0,0,1,3.11-.89c1.45.29,1.45.38,0,.56-1,.13-1.55.64-1.31,1.16s-.53,1.1-1.66,1.3c-1.32.24-1.76.7-1.22,1.27a1.55,1.55,0,0,0,1.89.11c.65-.48,1-.16,1.09.84s.55,1.38,1.38,1,1.65.18,2.11,1.19,1.17,1.62,1.65,1.4ZM-284.83-354a2.47,2.47,0,0,1,2.37-.4c1,.37.69.63-1,.92-1.33.22-1.92,0-1.35-.52Zm303,673c.56-2,1-2.48,1.35-1.53,1.1,2.87,1,4.85-.22,5.4-1.72.78-2.09-.49-1.13-3.87ZM-201.63-172.82c.17-.44.61,0,1,.94s.29,1.36-.3.8a2,2,0,0,1-.68-1.74ZM-93.34,74.06a1.92,1.92,0,0,1,1.78-.69c.43.16,0,.62-1,1s-1.37.28-.8-.31Zm-184-412.47c0-.79.31-.45.78.77.92,2.34-.74,5-2.17,3.42-.7-.76-1-.61-1.73.78s-1.16,1.54-2.75.63c-1.88-1.09-2.9-4.31-1.85-5.88.33-.49,2.25-.32,4.2.38,2.55.92,3.57.89,3.52-.1Zm-24.41-36.35c3.3-1.26,6.62-2.11,7.32-1.86.88.31.93.6.17.94-.6.27-.59.85,0,1.27.77.54.5.88-.92,1.13s-2.61,1.69-3.85,4.59-2.39,4.27-3.8,4.36c-1.89.12-1.92.05-.53-1.4a16.29,16.29,0,0,0,2.64-4.55l1.19-3-2.59,1.06a34,34,0,0,0-3.13,1.41c-.32.2-1-.07-1.56-.63-.78-.76.35-1.49,5.05-3.29ZM14,313.23c1.78-.13,2.05.17,1.23,1.37-.29.44-1.05.33-1.63-.23s-.59-1.07.4-1.14ZM-39.45,198.69a15,15,0,0,1,3.6,4.15c2.14,3.32,2.13,3.44-.2,3.4-1.87,0-2.76-.8-3.94-3.43-1.72-3.82-1.54-5.17.54-4.12Zm-75.76-171.3a2,2,0,0,1,1.51,1,.92.92,0,0,1-.53,1.21c-.5.22-1.16-.2-1.5-1s-.12-1.29.52-1.21ZM-232-228.37c1.34-1.34,1.84-.95.78.6-.37.54-1,.88-1.3.75s-.12-.72.52-1.35ZM4.39,300.2a2,2,0,0,1,1.54,1c.23.51-.08.82-.73.74a2.08,2.08,0,0,1-1.54-1c-.23-.51.08-.83.73-.74ZM-219.19-189.86a4.48,4.48,0,0,1,2.67.28c1.56.59,1.65.82.67,1.82-1.53,1.58-1.53,1.58-2.94-.13-.74-.9-.91-1.74-.4-2Zm-23.24-53.8c1.3-.59,1.61,1.09.42,2.29-.71.7-1.08.55-1.12-.45a2.09,2.09,0,0,1,.7-1.84Zm-52.13-112.77c.33-.87.86-1.44,1.2-1.31.88.34.34,1.89-.85,2.42-.6.27-.72-.13-.35-1.11ZM-29.44,233.51c.53-1.1,1-1.4,1.26-.82.5,1.1-.59,3.15-1.49,2.81-.34-.13-.24-1,.23-2Zm-144.48-320c.36-.55.81-.57,1-.07a2.07,2.07,0,0,1-.24,1.85c-.37.54-.82.57-1,.06a2.09,2.09,0,0,1,.25-1.84ZM-235.4-223.26c.94-.42,1.6.79,1.13,2-.59,1.56-1.73,1.49-1.81-.11,0-.89.25-1.74.68-1.93Zm-53.21-118a2.38,2.38,0,0,1,1.63,1.13c.28.61-.26.78-1.42.46-2-.55-2.16-1.84-.21-1.59Zm227.83,518a4.14,4.14,0,0,1,3.34-.62c2.53.54,1.16,1.45-2.43,1.62-1.6.08-1.78-.12-.91-1Zm4.52,3a2.05,2.05,0,0,1,1.54,1c.23.51-.09.82-.74.74a2.11,2.11,0,0,1-1.54-1c-.23-.51.09-.83.74-.74ZM-293-340.95c.33-.86.94-1.49,1.33-1.36s.09.88-.61,1.6c-1,1.08-1.2,1-.72-.24Zm4.35,8.86c.51-.23,1-.24,1.06,0a2,2,0,0,1-.47,1.34c-.35.52-.83.52-1.06,0a1,1,0,0,1,.47-1.33Zm-6.65-7.62c.24.52,1.66,1.29,3.18,1.73,2.7.79,2.72.82.9,1.67s-7.7-1.26-7.19-2.61,2.66-1.81,3.11-.79ZM-45,212.1a2.29,2.29,0,0,1,1.6,1.07c.22.48-.14.81-.8.71a2.24,2.24,0,0,0-2,1.44A3.8,3.8,0,0,1-49,217.16c-1.26.14-1.92.6-1.67,1.16s-.3,1.26-1.15,1.64c-1.21.55-1.19-.05.09-2.64,1.12-2.26,2-3.11,2.75-2.61s1.31.29,1.94-1c.47-1,1.36-1.68,2-1.58ZM-229.26-190.12a1,1,0,0,1,1.51-.27,1,1,0,0,1,.28,1.51,1,1,0,0,1-1.51.27,1,1,0,0,1-.28-1.51ZM-17.52,283.79a2.74,2.74,0,0,1,2.42.29c.6.45.66.69.13.5s-1.34.32-1.76,1.2c-.54,1.16-.9,1.17-1.4.07a1.49,1.49,0,0,1,.61-2.06ZM-45.17,221c.45-1.52.89-2.56,1-2.33.39.85-.2,5-.85,6-1,1.61-4,2.75-3.8,1.46a2.63,2.63,0,0,1,1.51-1.8c.75-.34,1.71-1.84,2.15-3.37ZM-169.82-57.37c2.32.85,2.64,1.5,1.09,2.2-1.7.76-2.77.21-2.85-1.47-.06-1.21.17-1.31,1.76-.73ZM-24.08,269c2.55-.15,2.81,2.6.35,3.71-.72.32-1.67-.53-2.39-2.14-.65-1.44-.78-2.87-.27-3.09s.88,0,.83.59.59,1,1.48.93ZM-166.75-47.83c2.31-.13,2.52,1.3.25,1.7-1.14.19-1.94-.08-1.87-.63s.82-1,1.62-1.07Zm-58.55-127c-.34-1.47-.19-1.56,1.39-.77,1.29.64,1.57,1.17,1,1.95-.93,1.35-2,.85-2.42-1.18ZM-39.36,235.38a12.67,12.67,0,0,1,2.06,3.1c.84,1.86.81,1.88-1.14.66-3.33-2.07-4.64-3.83-3.31-4.42a2.45,2.45,0,0,1,2.39.66Zm-192.58-427a1.07,1.07,0,0,1,1.33.58c.23.51-.11.9-.7.82a1.92,1.92,0,0,1-1.33-.57c-.11-.25.19-.6.7-.83ZM-309.42-364c1.49.2,1.47.55-.06,1.23-.68.31-1.21.12-1.15-.4a1,1,0,0,1,1.21-.83Zm266.19,594a.87.87,0,0,1,1.23.46c.46,1-.79,2.94-1.68,2.6s-.56-2.61.45-3.06Zm-12.08-24.59c1.6-2.1,1.79-1.69.5,1.1-1,2.12-1.1,2.18-2.3,1-.72-.7-.87-1.07-.34-.87s1.5-.41,2.14-1.25ZM-171.9-53.59a20.41,20.41,0,0,1,2.67,1.4c.28.62-1,2-2.39,2.61-1.19.53-1.71.31-1.75-.75,0-1.38-1.67-1.4-3.81,0-.35.22-.68-.29-.73-1.19-.08-1.19.3-1.47,1.52-1.14s1.67.07,1.76-.85,1.08-.84,2.73-.05ZM-30.95,261c2.33.64,4.1,4.56,2.4,5.32a3.37,3.37,0,0,1-2.87-.59c-.86-.63-1.38-.66-1.13-.05.77,1.84-1.79,2.33-2.77.53-1.07-2,1-4.4,2.7-3.26.93.61,1.09.38.56-.81-.62-1.35-.42-1.56,1.11-1.14Zm-9.24-21.57c.52-.23,1.53.79,2.17,2.24.84,1.86.77,2.86-.24,3.32s-1.47.09-1.54-.94-.56-1.38-1.33-1a2.32,2.32,0,0,0-1,2.33c.18,1.35.09,1.34-.39-.08a2.64,2.64,0,0,1,1.22-3c1-.66,1.48-1.45,1-1.77a.54.54,0,0,1,.11-1ZM-302-339.71a2,2,0,0,1,1.74-.68c.44.17,0,.61-.94,1s-1.36.29-.8-.3Zm-5.48-15c1.13-.5,1.17-.42.83,1.77-.23,1.52-.37,1.54-1,.18-.38-.84-.31-1.74.15-1.95ZM-69.65,178.72a2.06,2.06,0,0,1,1.76.28c.53.36.36.91-.41,1.26s-1.53.22-1.76-.28a.93.93,0,0,1,.41-1.26ZM-160.06-23.67c.24-.11.59.19.82.7a1.08,1.08,0,0,1-.57,1.33c-.51.23-.91-.11-.83-.7s.33-1.22.58-1.33Zm-5.07-10a1.93,1.93,0,0,1,1.31.53c.1.22-.21.55-.72.78a1,1,0,0,1-1.31-.53c-.23-.51.1-.87.72-.78ZM-35.65,257.68c.76-.35,1.48-.22,1.71.3s-.15,1.14-.91,1.48-1.48.22-1.72-.3.16-1.14.92-1.48ZM-39.9,252c2.6-.56,3.54.32,2.48,2.33-1,1.83-1,1.81-.48-.26s.42-2.14-1.22-1c-1,.69-1.9.79-2,.25s.42-1.11,1.25-1.29Zm-5.52-11.82c1.46-1.07,2.71-1.68,2.84-1.4.26.58.06.83-1.29,1.67A3,3,0,0,0-45,241.85a4.38,4.38,0,0,1-2.13,1.72c-2.57,1.16-1.42-1.12,1.73-3.41Zm-1-6.51c1.57-.71,1.64-.53,1,2.32-.52,2.23-.55,2.24-1.43.29-.54-1.19-.35-2.24.46-2.61Zm-16.54-35.4c1-.46,1.86-.62,2-.38s-.39,1.17-1.17,2.16c-1.1,1.41-1.48,1.48-2,.38-.35-.77.15-1.7,1.17-2.16Zm-8.73-21.78a1,1,0,0,1,1.29.49,1,1,0,0,1-.49,1.3,1,1,0,0,1-1.29-.49,1,1,0,0,1,.49-1.3ZM-310-353.07a2.11,2.11,0,0,1,1.54,1c.23.51-.08.83-.73.74a2,2,0,0,1-1.54-1c-.23-.51.08-.82.73-.74ZM-63.44,203.52a3.55,3.55,0,0,1,2.61-.77c1,.14,1.21.43.58.71a9.11,9.11,0,0,0-2.21,1.66c-.63.65-1.34.78-1.56.29a1.91,1.91,0,0,1,.58-1.89ZM-316.18-357.57c.79-1.17,1.6-1.6,2.4-1.28,2.09.81,1.11,2.85-1.89,3.9-4.41,1.54-5.07,1.65-5.4.91-.58-1.27,1-2.79,2.34-2.28,1,.37,1.69,0,2.55-1.25Zm236.9,521.91c.65.09,1.21.31,1.31.53s-.21.56-.72.78a1,1,0,0,1-1.31-.53c-.23-.51.09-.86.72-.78ZM-143.5,20.28c.22-.09.56.21.78.72a1,1,0,0,1-.53,1.31c-.51.23-.86-.09-.78-.71s.31-1.22.53-1.32ZM-178.9-57c.51-.23,1-.22,1.08,0a1.9,1.9,0,0,1-.45,1.38c-.33.5-.85.49-1.08,0A1.08,1.08,0,0,1-178.9-57Zm128.2,287.6c.14-1.72.33-1.62,1.28.7a20.12,20.12,0,0,1,1.25,4c.14,1.42-2.63,1.79-3.24.44-.22-.5.28-1,1.08-1q1.5-.06.48-1.08a4.62,4.62,0,0,1-.85-3ZM-322.29-371.7c2.58.67,3.24,2.21,2,4.76-1.66,3.56-2.54,4.33-3.2,2.85a1.65,1.65,0,0,1,.89-2.09c1.36-.65,1.28-.78-.76-1.23s-1.82-1.34.79-2.11c.4-.11.15-.76-.56-1.46-1.14-1.12-1.05-1.2.8-.72ZM-45.58,244c.5-.23,1-.24,1.06,0s-.11.79-.47,1.33-.84.53-1.07,0a1,1,0,0,1,.48-1.33Zm-7.78-17.4c.33-.48.88-.31,1.18.37s-.45,1.93-1.8,2.78c-3,1.91-4.58,2.07-5.28.51-.35-.77.11-1.22,1.3-1.3,1.71-.1,1.65-.23-1-1.89-2.84-1.78-2.84-1.78-.85-2.12,1.52-.25,1.74-.66.91-1.73s-.54-1.64,1-2.33,2.25-.5,2.94,1.22a5.8,5.8,0,0,1,.55,3c-.52,1.38.33,2.56,1.07,1.47Zm-19-36.71c0,.42,1,1,2.4,1.26,2.38.51,2.38.51.52,1.38-2.36,1.11-8.14-.47-6-1.65l2.23-1.26c.49-.28.87-.16.89.27Zm-178.09-400c.76-.34,1.47-.23,1.69.26s-.26.88-1.16.93-1.61-.06-1.7-.25.4-.59,1.17-.94ZM-60,216.61a2.09,2.09,0,0,0,1.81,1.18c.84-.07.88.25.11,1-1.13,1.13-4.79-.57-4.26-2s1.77-1.51,2.34-.24Zm-19.77-32.72a13.38,13.38,0,0,1,5-1c1.92.18,2,.29.82,1.47a3.38,3.38,0,0,1-2.3,1.14c-.56-.08-1.62.81-2.33,2s-.8,2.18-.1,2.27c1.38.17,1.76,3,.49,3.58-.52.23-1-.28-1-1.18-.06-1.34-1.2-1.47-2.94-.34-.36.24-.8,0-1-.47s.28-1.2,1-1.54c.94-.42,1.05-1.05.33-1.78s-.73-1.31-.23-1.53.58-.61.16-.89.6-1,2.15-1.68ZM-285.93-278.66a12.2,12.2,0,0,1,3.35-.49c1.87,0,1.83.1-.27,1.09-1.35.64-2.82.85-3.35.49s-.43-.83.27-1.09Zm-29.48-71.86c.31-.46.82-.22,1.17.55,1,2.2-.23,2.89-1.78,1-.79-1-1.3-2-1.17-2.33s.46-.11.73.49.75.73,1,.29ZM-46.36,250.77c.2-.09.8.3,1.44.93s.74,1.24.25,1.47-1.09-.17-1.44-.94-.45-1.38-.25-1.46Zm-137.58-299c.54-.28,2.08,0,3.53.7s2,1.13,1.19,1-1.14.41-.76,1.26a2.46,2.46,0,0,1-.54,2.54c-.76.74-.71,1.64.14,2.59,1,1.09.85,1.65-.59,2.3-1.27.58-1.84.39-1.7-.56A6.85,6.85,0,0,0-183-42.2a1.52,1.52,0,0,1,1-1.56c1.87-.84,1.21-3.6-.91-3.83-1.07-.11-1.5-.42-1-.68ZM-79.61,181c.33-.86,1-1.47,1.35-1.32s.1.91-.61,1.6c-1.06,1-1.22,1-.74-.28Zm-98-220.86c.37-.54.82-.57,1.05-.06a2.09,2.09,0,0,1-.25,1.84c-.36.55-.81.57-1,.07a2.07,2.07,0,0,1,.24-1.85ZM-316.14-345.45c.51-.23,1-.24,1.07,0a2,2,0,0,1-.48,1.34c-.35.51-.83.52-1.06,0a1,1,0,0,1,.47-1.33ZM-179.67-36.07c.13-.38,1-.44,1.84-.11,1.29.49,1.25.63-.24.72-1,.06-1.73-.22-1.6-.61ZM-328.08-369.5a2.64,2.64,0,0,1,1.71,1.42c.3.68.16,1.46-.32,1.67s-1.25-.4-1.71-1.42-.32-1.76.32-1.67ZM-70.44,207.69c1.14-.19,2.16,0,2.38.51s-.57.78-1.84.68a5.06,5.06,0,0,1-2.38-.52c-.08-.19.7-.48,1.84-.67Zm-4.71-11.5c.76-.34,1.58-.22,1.8.26a.94.94,0,0,1-.45,1.28,2.09,2.09,0,0,1-1.8-.26c-.52-.35-.32-.93.45-1.28Zm.29,3.14c.76-.35,1.58-.23,1.8.26a.93.93,0,0,1-.45,1.27,2,2,0,0,1-1.8-.26c-.52-.35-.32-.93.45-1.27ZM-85.45,175c.33-.86.7-1.41.8-1.18.38.85-1.06,3.54-2.16,4-1.44.65-2.13-.74-1.11-2.23.44-.63.67-.53.57.22-.23,1.74,1.16,1.12,1.9-.85Zm-238.42-530.4a1.93,1.93,0,0,1,1.31.53c.1.22-.21.55-.72.78a1,1,0,0,1-1.31-.53c-.23-.51.1-.86.72-.78ZM-10.2,348.13c2.34-1.14,3.74-.31,2.51,1.5-.35.52-.78.52-1,0s-1.21-.77-2.16-.61-.84-.17.66-.91Zm-44.29-102c.53-.47,1.31-.05,1.77,1,.57,1.27.34,1.85-.77,1.92-1.86.12-2.44-1.57-1-2.89ZM-188.92-50.86c1.1-1.63,1.92-.72,1,1.13-.53,1.09-1,1.39-1.27.81a2.27,2.27,0,0,1,.26-1.94ZM-332.07-368.27c1.53-.69,3.08,1.64,1.89,2.84-2,2-3.24,2.05-2.19.12.56-1,.64-2,.19-2.2s-.4-.53.11-.76ZM-87.56,182.9c1.34-1.56,2-1.82,3.28-1.21s1.29,1.06.4,2c-.63.66-1.56,1.1-2,.94s-1.12.34-1.55,1.21c-.57,1.14-.88,1.21-1.3.28-.3-.68.22-2.13,1.15-3.23ZM-82,195.25c.13-.37,1-.4,1.85-.07,1.3.49,1.25.62-.25.67-1,0-1.74-.24-1.6-.6ZM-322.23-333.83c1.8-.76,3.19-1.31,3.15-1.27s-.46,1.13-.93,2.36c-.82,2.16-1,2.22-3.15,1.26s-2.16-1.06.93-2.35Zm-7.84-24.32c.18-.47.52-.44.75.07.73,1.61-.25,2.44-2.06,1.76-2.33-.87-2.85-2-.64-1.42.93.26,1.77.08,1.95-.41Zm134,304.23c1.82-1.85,2.55-1.09,1,1-.77,1-1.58,1.47-1.78,1s.2-1.37.83-2ZM-339.72-371.1c1.89.55,3.49,1,3.67,1s-.25.58-.88,1.21-1.14.74-1.05.07-.44-.88-1.12-.57a2.6,2.6,0,0,1-2.62-1.06c-1.33-1.61-1.29-1.62,2-.65ZM-53,266.63c.76-.35,1.45-.29,1.63.13s-.22,1-1,1.31-1.45.29-1.64-.13.23-1,1-1.31Zm-37.68-84.85c.51-.23,1-.22,1.08,0a1.92,1.92,0,0,1-.45,1.38c-.33.49-.85.48-1.08,0a1.06,1.06,0,0,1,.45-1.37Zm-246-548c.22-.1.55.21.78.72a1,1,0,0,1-.53,1.31c-.51.23-.86-.1-.78-.72a1.93,1.93,0,0,1,.53-1.31ZM-19.47,343.63a4.92,4.92,0,0,1,2,.83c.09.19-.44.61-1.2,1a1.59,1.59,0,0,1-2-.83c-.53-1.19-.32-1.36,1.2-.95ZM-207.85-75c.76-.34,1.43-.46,1.51-.27s-.34.83-1,1.46-1.3.74-1.51.27.21-1.12,1-1.46Zm-51.56-110.73a3.21,3.21,0,0,1,2.73-.16c.55.37.19,1-.83,1.44a3.21,3.21,0,0,1-2.73.16c-.55-.37-.19-1,.83-1.44Zm-87-191.16c2.76-.43,4.83,1.09,2.74,2a2.08,2.08,0,0,0-1.22,1.93c.11,1-.23,1.19-1.57.71a5,5,0,0,0-3.23.07c-2.9,1.31-3.38-.49-.91-3.38,1.41-1.63,2.9-2.83,3.34-2.66s.24.63-.41,1-.07.52,1.26.3ZM-91.68,187.92c.77-.34,1.51-.28,1.7.15s-.25,1-1,1.38-1.51.27-1.7-.16.25-1,1-1.37ZM-339.54-361.75c.48-.21,1.12.21,1.46,1s.47,1.42.27,1.51-.82-.34-1.45-1-.75-1.29-.28-1.51ZM-54.11,277.3a6,6,0,0,1,2.84,1.54c.18.41-.74.41-2.15,0a5.42,5.42,0,0,1-2.83-1.53c-.21-.46.71-.46,2.14,0Zm-24-55.61c2.41.32,1.73,1.81-.83,1.8-2,0-2.55-.4-2.2-1.65.53-1.87,2.21-3.06,2-1.4a1.17,1.17,0,0,0,1,1.25Zm54.11,124c.76-.34,1.58-.23,1.8.26a.93.93,0,0,1-.45,1.27,2,2,0,0,1-1.8-.26c-.52-.35-.32-.93.45-1.27ZM-216.48-83.41a2.08,2.08,0,0,1,1.54,1c.23.51-.09.83-.74.74a2.05,2.05,0,0,1-1.54-1c-.22-.51.09-.83.74-.74ZM-34.72,321.52c.24-.11.6.19.83.7a1.07,1.07,0,0,1-.58,1.33c-.51.23-.9-.1-.82-.7a1.92,1.92,0,0,1,.57-1.33ZM-92.21,194.89a2.57,2.57,0,0,1,1.65,1.4c.84,1.88.1,1.9-1.44,0-.74-.89-.83-1.51-.21-1.44ZM-180.28-.7a1.06,1.06,0,0,1,1.33.57c.23.51-.11.91-.7.83S-180.87.37-181,.12s.19-.59.7-.82Zm-150.63-331c.56-.56,1.4-.82,1.79-.56s0,.88-.92,1.36c-2,1-2.36.69-.87-.8ZM-61,272.09c.46-1.21.79-1.07,1.56.62s.63,2-.59,1.54-1.42-1-1-2.16Zm-3.62-5a1.72,1.72,0,0,1,1.87-.51c1,.68-.44,3.68-1.55,3.25-1.4-.53-1.51-1.54-.32-2.74Zm-.67-2.17a2,2,0,0,1,1.78-.7c.43.17,0,.63-1,1s-1.37.29-.8-.3Zm-257-572.35c1.61-.73,2.1-.3,1.2,1.06a1.12,1.12,0,0,1-1.58.23c-.55-.38-.38-.95.38-1.29Zm-24.9-54.44c.9-.72,1.71-1,1.9-.55s-.35,1.27-1.25,2-1.71,1-1.9.55.35-1.26,1.25-2Zm257,572.32c.77-.35,1.43-.46,1.51-.27s-.34.83-1,1.46-1.3.74-1.51.27.21-1.12,1-1.46Zm-6.65-11.16a24.38,24.38,0,0,1,2.92-.73c.43,1.39-.85,3.06-2.56,3.35-3.4.56-3.71-1.67-.36-2.62ZM-224.1-84.82c1.53-.69,3.19.36,2.42,1.52s-4.49-.18-5.07-1.76c-.26-.73-.1-.77.54-.14a2,2,0,0,0,2.11.38ZM-69.72,257c.51-.23,1.14.16,1.48.92s.22,1.48-.3,1.71-1.14-.15-1.48-.91-.22-1.48.3-1.72Zm-17.17-39.4c.23-.1.71.45,1,1.21s.09,1.33-.56,1.24c-1-.14-1.42-2-.49-2.45ZM-317.35-288.19a4,4,0,0,1,2.52.5c1.48.71,1.46,1-.15,1.7-1.11.5-2.17.29-2.52-.5s-.28-1.5.15-1.7Zm284,639.54c1.46-2,2.26-2.42,3.39-2s1.08.58-.32.65c-1,.06-1.6.53-1.36,1.07s-.49,1.4-1.59,1.9c-1.9.85-1.91.74-.12-1.63Zm-57.3-128.91c2.38-1.07,3.42-.05,2.5,2.44-.5,1.35-.4,2,.25,1.73s1.39.49,1.85,1.81c1.1,3.15-.48,3.08-3.5-.15s-3.27-4.86-1.1-5.83ZM-31.54,355.1c.63-.64,1.44-.92,1.85-.65s0,.89-1,1.43c-2,1.08-2.35.73-.86-.78ZM-198.64-16c2.71-1.22,3.26-.92,1.51.85a2.75,2.75,0,0,1-2.62.77c-.93-.36-.59-.86,1.11-1.62ZM-28,364.51c.33-.86.92-1.48,1.28-1.34s.09.87-.6,1.6c-1,1.09-1.17,1-.68-.26Zm-26.09-58.64a3,3,0,0,1,2.28.86c.53.58.36,1-.42,1.11a3.09,3.09,0,0,1-2.28-.87c-.54-.57-.36-1,.42-1.1Zm-38-85.5c.71-.46,1.32-.7,1.38-.56.29.64-.74,2-1.93,2.5-1.64.74-1.2-.83.55-1.94Zm58.55,138.15c-.08-.66.78-.87,2.25-.55s1.94.72,1.24,1.07-.66.87-.17,1.2.53.83,0,1.06c-1.17.53-3.16-1.13-3.34-2.78ZM-94.67,215.28A3.77,3.77,0,0,1-93,217.05c.46,1-.22,1.07-2.53.17s-3.3-1.88-3.76-3.92c-.72-3.14.52-4.24,1.88-1.66,1.47,2.8,1.83,3.27,2.79,3.64Zm32.8,78.78c.33-.86.92-1.48,1.29-1.34s.08.87-.61,1.59c-1,1.09-1.17,1-.68-.25Zm-21.19-45.29c2.36-.41,2.9.07,1,.91a2.57,2.57,0,0,1-2.14,0c-.5-.33,0-.72,1.12-.91ZM-233.18-83.7c1.14-.62,2.3-.77,2.51-.31s-.64,1.31-1.83,1.84-2.34.68-2.51.31.68-1.21,1.83-1.84ZM-55.55,315.24a3.9,3.9,0,0,1,2.25-1c.74,0,.34.41-.94,1s-1.84.58-1.31,0Zm-1.26-8.36a.93.93,0,0,1,1.25.51c.22.48-.24,1.18-1,1.52s-1.33.11-1.25-.51a2,2,0,0,1,1-1.52Zm-14.73-27.75a4.74,4.74,0,0,0,2.22,1.55c1.63.62,1.83,1.07,1.66,3.79-.15,2.52.09,3.14,1.3,3.35s1.24.71.34,2.34c-.61,1.13-.63,1.87,0,1.6.75-.34,1.07.13,1,1.49a7.39,7.39,0,0,0,.72,4.16c.22.48-.31.9-1.2.95-1.14.08-1.33.7-.66,2.24,2.24,5.11,1.89,6.08-3,8.27a20.2,20.2,0,0,1-7.32,1.87c-1.57-.09-2.26-.41-1.55-.73s.86-.73,0-1-1.9-2.36-2.74-4.73c-1.31-3.7-1.26-4.31.38-4.61,1.22-.22,1.68-.8,1.29-1.65s-1.22-.9-2.24-.22-1.79.82-2,.44c-1-2-1-2.51.21-3.05a1.33,1.33,0,0,1,1.83.45c.34.76.63.64,1-.42.61-1.62-1.26-3.25-2.18-1.89a4.32,4.32,0,0,1-2.6,1.13c-1.73.21-2-.08-1.85-2.17a9.46,9.46,0,0,1,.81-3.53c.48-.8.33-1-.52-.58-.67.3-1.11,0-1-.67s.7-1.06,1.86-.73a3.44,3.44,0,0,0,2.89-.74c1-1,.89-1.35-.51-2-1-.48-1.33-1-.84-1.2s.41-1.36-.16-2.63c-.69-1.53-1.34-1.92-2-1.23a8.12,8.12,0,0,1-1.4,1.19c-.21.1-.19.6,0,1.11s.66.59.95.18.9.52,1.37,2.14c.58,2,.45,2.62-.42,2-.71-.49-1.21-1.2-1.16-1.67s-.39-.87-1-1a1.1,1.1,0,0,1-1-1.22c.07-.59-1.62-1.11-3.68-1.15s-4.32-.59-4.93-1.2c-.94-.95-.76-1,1.16-.39,2.87.94,7.37,0,7.59-1.51.1-.72-.25-.76-.88-.11a1.59,1.59,0,0,1-2.22-.07c-.65-.63-.78-1.34-.29-1.56s.62-1,.28-1.75c-.56-1.25.6-2.28,3.86-3.42,1-.35,1.17-1.19.5-2.53-.54-1.08-1.49-1.72-2.06-1.4-3,1.7-3.19,2-1.56,2.19,2.79.39.1,2.5-3.47,2.71-3.19.2-3.36-1.12-.34-2.55a2,2,0,0,0,1.15-2.92c-.77-2-2.24-1.32-3.83,1.71-.51,1-.91.94-1.37-.08a1.56,1.56,0,0,1,.67-2c.76-.35,1.14-1,.89-1.53-.52-1.17,3.43-2.46,5-1.61.59.33.74,0,.36-.88a2.52,2.52,0,0,1,.4-2.51c1.24-1.27-1.22-6.12-3.53-6.94-1.24-.44-1.34-.21-.5,1a1.8,1.8,0,0,1-.42,2.69c-1.22.88-1.55.69-1.71-1s-.74-2-2.39-1.78c-1.35.16-2.2-.3-2.24-1.24s-.42-1.34-.82-1.15-1.36-.26-2.07-1c-1-1.06-1-1.19.3-.7,1.85.7,5.38-.53,4.07-1.42a1.1,1.1,0,0,1-.26-1.57,1.66,1.66,0,0,0-.46-2c-.76-.76-.45-1.35,1-1.94,1.12-.45,1.76-.47,1.35,0-.75.81,2,6.82,3.3,7.33s1.88-2.58,1.08-5.08c-.43-1.33-1.13-2.24-1.58-2s-1.15-.4-1.61-1.42-.41-2,.09-2.18a1.28,1.28,0,0,0,.32-1.68,2.52,2.52,0,0,1,1-2.62c.88-.77,1.36-1.75,1.12-2.29s-.88-.47-1.51.17-1.29.53-1.7-.61c-.58-1.61-.45-1.68,2.19-1.24s2.84.33,3.28-1.78c.26-1.24.8-2.13,1.21-2,1.18.45-2,8.41-3.33,8.24-.62-.08-.91.24-.68.75a2.1,2.1,0,0,0,1.58,1c.84.1,1,.6.74,1.76s.17,1.52,2.16,1.17c1.41-.25,2.49-.17,2.36.16-.23.61-.9,1.17-3.7,3.1-.21.15.37.38,1.25.51s2.41,1.87,3.64,4.48c1.52,3.19,2.48,4.22,3.87,4.17A2.78,2.78,0,0,1-82,253.35c.39.88,0,1.41-1.21,1.51-1.58.14-1.53.23.43.73s2.15.66,1,1.83-1,1.41,1,2.66A10.32,10.32,0,0,1-77.35,265c.7,2,1.58,3.31,2.1,3.08s.68.92.44,2.46,0,2.66.52,2.41,1.15.35,1.35,1.28a3.31,3.31,0,0,0,2.26,2.2c1.64.41,1.68.57.33,1.18-.85.38-1.4,1.09-1.19,1.55Zm-24-54.5c.77-.34,1.49-.22,1.72.3s-.15,1.14-.91,1.48-1.49.22-1.72-.3.15-1.13.91-1.48ZM-217.38-42.66a1.85,1.85,0,0,0,2.06,1.16c1.21-.27,1.45,0,1,1.12-1,2.72-3.35,1.91-5-1.74-.88-2-1.19-3.64-.71-3.86.95-.43,1.72.55,2.6,3.32ZM-332.56-301.12c1-1.56,1.62-.89.84.95-.4.93-.92,1.35-1.12.9a2.21,2.21,0,0,1,.28-1.85ZM-57.12,312.32c.77-.34,1.54-.22,1.76.28s-.29.94-1.18,1-1.67-.06-1.76-.28.42-.65,1.18-1Zm-34.17-77.19c.36-.54.81-.57,1-.06a2,2,0,0,1-.24,1.84c-.37.55-.81.57-1,.06a2,2,0,0,1,.24-1.84Zm-112.06-249a1,1,0,0,1,1.29.49,1,1,0,0,1-.49,1.29,1,1,0,0,1-1.29-.49,1,1,0,0,1,.49-1.29ZM-42.28,354.35a7.38,7.38,0,0,0,3.25,1c1.79.13,1.9.3.9,1.33-.63.64-1.35.74-1.59.2s-1.54-.25-3.35.95c-3.7,2.43-5.06,1.43-2.44-1.8,1.64-2,2.26-2.34,3.23-1.67Zm-306-686.25c0,.39.58.74,1.3.74s.27.37-1,.79-2.43.23-2.58-.41-.68-1-1.14-.82-.89-.31-.95-1.1c-.09-1.2.32-1.33,2.13-.7,1.21.42,2.23,1.11,2.21,1.5Zm-6-13.9c2.27-.12,2.56,1.38.43,2.33-1,.46-1.6,1.2-1.36,1.73s-.07.88-.65.81c-1.22-.13-2-2.43-1.37-3.94.24-.57.38-.41.31.34s.31,1.18.83.95a1.05,1.05,0,0,0,.59-1.29c-.21-.48.32-.89,1.22-.93ZM-43.75,348.49a2.15,2.15,0,0,1,1.72-.73c.42.15,0,.59-.94,1s-1.34.32-.78-.26Zm9.44,23.24a2,2,0,0,1,1.84.24c.55.37.57.82.06,1a2.05,2.05,0,0,1-1.84-.24c-.54-.36-.57-.81-.06-1ZM-217.44-36.82c.63-.64,1.24-.74,1.47-.25.53,1.19-.69,2.64-1.66,2-.52-.36-.44-1.08.19-1.72ZM-54.83,325.8A2.71,2.71,0,0,1-53,327.46c.54,1.29.41,1.36-.86.54-1.85-1.21-2.37-2.38-1-2.2ZM-101.89,225c2.42,1,2.42,1,1.3,3.46-1.22,2.73-3.26,3.74-3.36,1.65,0-.89-.51-1.4-1.06-1.15s-.8-.2-.46-1.48c.41-1.49.11-2.19-1.32-3.18a3.57,3.57,0,0,1-1.69-3c.13-1.54.31-1.62,1.92-.81,1,.48,1.44,1.06,1,1.27s.54.51,2,.66c2.24.23,2.47.42,1.16,1s-1.39.81.44,1.53ZM-193.63,22.44a2.08,2.08,0,0,1,1.84.24c.55.37.57.82.06,1.05a2.08,2.08,0,0,1-1.84-.24c-.54-.37-.57-.82-.06-1ZM-202.82-.71c.65.09,1.21.32,1.31.54s-.21.55-.72.78a1,1,0,0,1-1.31-.53c-.23-.51.09-.87.72-.79ZM-245.1-94.65c.51-.23,1-.24,1.06,0a1.92,1.92,0,0,1-.47,1.33c-.35.52-.83.53-1.06,0a1,1,0,0,1,.47-1.33ZM-39.34,365.42c.32-.14,1.09.69,1.69,1.84.87,1.65.77,2-.46,1.58-1.57-.53-2.42-2.88-1.23-3.42ZM-298.56-209.83c.76-.35,1.58-.23,1.8.26a.93.93,0,0,1-.45,1.27,2,2,0,0,1-1.8-.26c-.52-.35-.32-.93.45-1.27Zm-54.56-120.1a1.07,1.07,0,0,1,1.33.57c.23.51-.1.91-.7.83a2,2,0,0,1-1.33-.57c-.11-.25.19-.6.7-.83ZM-39.35,371.86c.3-.14.8.3,1.1,1s-.16,1.34-1.39,1.54c-1.53.25-1.77,0-1.11-1a4.92,4.92,0,0,1,1.4-1.54ZM-303.31-211c2.29-1,2.69-.95,2.17.45s-3.49,2.49-3.95,1.47c-.23-.5.6-1.39,1.78-1.92ZM-101.55,234.9c.24-.11.71.44,1.06,1.21s.09,1.32-.57,1.24c-1-.15-1.42-2-.49-2.45Zm-222.3-492.77c.65.08,1.2.29,1.29.49s-.12.74-.49,1.29-.95.27-1.29-.49-.12-1.37.49-1.29Zm280.06,628.6c.53-1.08,1.12-1.4,1.77-.94s.41,1.25-.22,1.89c-1.61,1.63-2.55,1.06-1.55-.95Zm-58.33-130.42c.33-.86.85-1.44,1.2-1.31.88.34.34,1.89-.85,2.43-.6.26-.72-.14-.35-1.12Zm-3.68-4.67a4.72,4.72,0,0,1,2.28-1.73c1.6-.17.44,1.66-1.61,2.54-1.71.73-1.77.66-.67-.81Zm-6.44-17.14c.13-.39,1-.44,1.83-.12,1.3.49,1.26.63-.23.72-1,.06-1.73-.22-1.6-.6Zm-16.47-39.21c2.13-.13,2.14.46,0,1.42-1,.45-1.81.35-1.74-.24s.83-1.12,1.72-1.18Zm-79.22-164.7c1.16.36,3.53,1,5.15,1.46l3,.79-3.15-.42c-2.26-.3-4.14.22-6.67,1.83-3.17,2-3.42,2.05-2.45.24.61-1.14.65-2.31.09-2.69-1.57-1.07,1.53-2,4-1.21Zm-38.66-98.38a14.11,14.11,0,0,0,2.16,3.32c1.05,1.09.91,1.23-.94,1-2.49-.34-5.67-6.13-3.42-6.26.7,0,1.71.86,2.2,2Zm151.09,343c.79-1.17,1.44-1.54,1.7-1a2.09,2.09,0,0,1-.71,2.05c-1.76,1.75-2.43,1-1-1.09Zm-17-36.11a2,2,0,0,1,1.55-.86c1-.08,1.09.16.48,1.07-.85,1.27-2.53,1.09-2-.21ZM-367.75-345.79c2.12-.95,2.56-.55,1,1a1.72,1.72,0,0,1-2,.5c-.48-.34,0-1,1-1.46ZM-212.19-.21a1,1,0,0,1,1.29.49,1,1,0,0,1-.49,1.29,1,1,0,0,1-1.29-.49,1,1,0,0,1,.49-1.29ZM-51,360.51c.37-.54.82-.57,1.05-.06a2.11,2.11,0,0,1-.24,1.85c-.37.54-.82.57-1,.06a2.11,2.11,0,0,1,.24-1.85Zm-59.52-132.29c2.3,1.52,2.33,2.48.05,1.61-1.1-.42-1.93-1.2-1.76-1.65s1-.44,1.71,0ZM-165,111.36c1.35-.61,2.64-.69,2.88-.18.51,1.15-1.28,1.93-3.59,1.56-1.39-.22-1.24-.5.71-1.38Zm59.28,128.57c.25-.11.6.19.83.7a1.07,1.07,0,0,1-.58,1.33c-.51.23-.9-.1-.82-.7a1.92,1.92,0,0,1,.57-1.33ZM-291.06-168.23c.51-.22,1-.23,1.06,0s-.1.79-.47,1.33-.83.53-1.06,0a1,1,0,0,1,.47-1.34Zm238.5,531c.73-.32,1.12,1.57.51,2.49-.33.5-.66.18-.73-.71s0-1.69.22-1.78Zm-4.2-2.08a1.38,1.38,0,0,1,1.89.57c.31.68.39,1.26.2,1.34a4.3,4.3,0,0,1-1.9-.57c-1.16-.55-1.21-.89-.19-1.34Zm-29.45-56.27c.07,1.3.93,2.18,2.58,2.67,1.88.55,2.33,1.07,1.9,2.2-.77,2-2,2.51-2.3.93-.18-.81-1.25-.66-3.29.46-2.21,1.22-2.77,1.28-2.09.23a2.48,2.48,0,0,1,2-1.31c.59.07.54-.4-.1-1s-.69-2.19,0-3.62c1.15-2.41,1.18-2.43,1.29-.53Zm-23.24-52.33c1-2.93,2.28-3.37,1.92-.66a2.75,2.75,0,0,0,.7,2.29c.55.41.2.68-.91.71a9.54,9.54,0,0,0-2.23.25c-.24.1,0-1,.52-2.59Zm47.63,111.64a7.9,7.9,0,0,1,3.2.19c1.25.29,1.93.69,1.46.87a8.09,8.09,0,0,1-3.2-.19c-1.25-.29-1.92-.69-1.46-.87Zm1.28-4.18c1.78-.13,2.33.36,1,.94a2,2,0,0,1-1.78-.22c-.55-.35-.24-.65.74-.72Zm-51.11-114.83c.51-.23,1-.22,1.08,0a1.92,1.92,0,0,1-.45,1.38c-.33.5-.85.48-1.08,0a1.08,1.08,0,0,1,.45-1.38Zm-34.77-73.3c.63-.88,1.48-1.56,1.8-1.45.92.33,0,1.82-1.54,2.48-1.22.53-1.26.36-.26-1Zm64.8,142.31c.51-.23,1-.24,1.07,0s-.11.79-.47,1.33-.84.53-1.07,0a1,1,0,0,1,.47-1.33ZM-88.44,301c.74-1.07,1.37-1.72,1.46-1.53.3.68-1.57,3.84-2.15,3.62-.35-.13-.06-1,.69-2.09ZM-61,369.54c-.11-1.75,0-1.8,2.23-.74s2.2,1.27,1.16,2.35c-1.48,1.51-3.24.67-3.39-1.61Zm-43.7-103.25c.76-.34,1.54-.2,1.78.32s-.09.89-.7.83-1.8.76-2.57,1.77c-1.29,1.66-1.49,1.63-1.8-.27-.27-1.61-.77-1.95-2-1.37a1.67,1.67,0,0,1-2.25-.47,10.38,10.38,0,0,0-1.75-2.42c-.64-.63-.74-1.4-.23-1.63s1.42.53,2,1.81,1.43,2.05,2,1.8.47-1.08-.12-1.83-.53-2.43.42-4.17c1.07-2,1.36-2.19,1-.81s-.12,2,.8,2.13c.73.1,1.49,1.22,1.71,2.55.29,1.71.78,2.2,1.76,1.76ZM-115,249.59c1.76-1.52,2.61-1.78,3.37-1s.52,1-.48,1.08c-.8,0-1.25.62-1,1.25.38.85.11,1-.94.63a3,3,0,0,0-2.69.6c-.64.61-1.08.76-.93.32a11.8,11.8,0,0,1,2.64-2.87Zm-39.28-94.89c.51-.23,1-.22,1.08,0a2,2,0,0,1-.45,1.38c-.34.5-.86.48-1.08,0a1.07,1.07,0,0,1,.45-1.38ZM-222.55,10.88c.45-.21,2,.15,3.4.76,2.56,1.14,2.56,1.14.14,1-2.72-.16-4.8-1.2-3.54-1.76Zm157.63,347.8c2.12-1,2.69-.63,1.66,1a1.76,1.76,0,0,1-2.14.46c-1.09-.41-1-.78.48-1.43Zm-28.82-65.17c.85-.39,1.8-.33,2,.12.49,1.1-2.54,6-3.5,5.61-1.29-.49-.11-5,1.5-5.73Zm-20.45-48.64c.24-.11.59.19.82.7a1.06,1.06,0,0,1-.57,1.33c-.51.23-.91-.1-.83-.7s.33-1.22.58-1.33Zm61.93,141.36c.51-.23,1.13.16,1.48.92s.22,1.48-.3,1.71-1.14-.15-1.48-.91-.22-1.48.3-1.72Zm-16.82-33a3.19,3.19,0,0,1,2.93.34c1.25,1.37-1.28,3.68-2.88,2.62-2.2-1.46-2.22-2.33,0-3Zm-41.49-97.18c.39-.18.85.07,1.08.58s-.49,1.29-1.6,1.79c-1.61.73-1.81.61-1.07-.59a5.12,5.12,0,0,1,1.59-1.78Zm-2.62-3.11c2.12-1,2.5-.21.76,1.46a16.1,16.1,0,0,0-1.75,1.9c-.26.36-.52-.08-.59-1a2.7,2.7,0,0,1,1.58-2.39ZM-216.69,23.23c2.12-.95,2.56-.55,1,1a1.71,1.71,0,0,1-2,.5c-.49-.34-.05-1,1-1.46ZM-101.51,283a2.65,2.65,0,0,1,2.31,0c.53.36.36.91-.41,1.26a2.62,2.62,0,0,1-2.31,0c-.53-.36-.36-.91.41-1.25Zm-35.87-79.48c1.47-.36,2.85-.23,3.09.28.36.8-4.34,2.16-5.69,1.65-1.15-.44,0-1.31,2.6-1.93ZM-227-.74c.16-.44.61,0,1,.94s.28,1.36-.31.8A2,2,0,0,1-227-.74ZM-249.3-49.36a2,2,0,0,1,1.5,1,.9.9,0,0,1-.53,1.2c-.5.23-1.16-.19-1.5-.95s-.11-1.29.53-1.21ZM-62,378.18c.18-.53,1.5-.48,2.91.11,2.7,1.14,2.59,3.63-.11,2.6-.86-.32-1.12-.72-.63-.94s.15-.47-.83-.59-1.53-.62-1.34-1.18Zm-55.7-131.83c.34-.21,1,0,1.52.55s.29,1-.39,1c-1.37.14-2.16-1-1.13-1.6Zm-123-268.94c.13-.87.62-1.27,1.15-.93,1.4.92.59,2.08-2.38,3.42-2.29,1-2.56.94-2.09-.69s.77-1.72,1.81-1.07,1.33.47,1.51-.73Zm134.42,300.76a2,2,0,0,0,1.79,1.14c.89-.07,1,.21.5,1a3.55,3.55,0,0,1-2.73,1,25.74,25.74,0,0,0-3.93.1c-2.36.26-2.14-.22,1.19-2.57,1.93-1.37,2.78-1.54,3.18-.64ZM-260.54-68.43c.22-.1.56.21.79.72a1,1,0,0,1-.54,1.31c-.5.23-.86-.1-.78-.72a2,2,0,0,1,.53-1.31ZM-368.76-308.92c.22-.1.56.21.79.72a1,1,0,0,1-.54,1.31c-.5.23-.86-.1-.78-.72a2,2,0,0,1,.53-1.31ZM-62,387.59c.7-1.85,1.06-2,2.53-1.4,2.09.93,3,4.06,1.39,4.78a4.07,4.07,0,0,1-3-.35c-1.42-.7-1.61-1.31-1-3ZM-95,304.49a4.15,4.15,0,0,1,1.48,1.93c.57,1.26.11,1.94-1.92,2.86-1.62.72-2.89.73-3.21,0-.61-1.35,2.38-5.29,3.65-4.8Zm-8.09-15.72c1.77-.13,2.32.36,1,.94a2,2,0,0,1-1.78-.22c-.55-.35-.24-.65.75-.72Zm-169.46-375a2,2,0,0,1,1.76-.74c.42.14,0,.6-1,1s-1.35.33-.78-.26Zm-77.25-174.5a1.07,1.07,0,0,1,1.33.57c.23.51-.11.91-.7.83a2,2,0,0,1-1.33-.58c-.11-.24.19-.59.7-.82Zm238.46,532.17c.48-.22,1.17.23,1.52,1s.11,1.33-.51,1.25a2,2,0,0,1-1.52-1,.93.93,0,0,1,.51-1.25ZM-352.19-265c.24-.11.6.19.83.7a1.07,1.07,0,0,1-.58,1.33c-.51.23-.9-.11-.82-.7a1.92,1.92,0,0,1,.57-1.33ZM-58.36,392.86c.63-.64,1.33-.55,1.67.21a1.4,1.4,0,0,1-.72,1.91c-.76.34-1.47.25-1.68-.22a2,2,0,0,1,.73-1.9Zm-3.86-9.7c.51-.23,1-.22,1.09,0a1.91,1.91,0,0,1-.46,1.37c-.33.5-.85.49-1.08,0a1.08,1.08,0,0,1,.45-1.38Zm-32-72c.17-.43.63,0,1,1s.29,1.37-.3.8a2,2,0,0,1-.7-1.78Zm-8-15.92c1.27-.57,1.23,2.5,0,3.52-1.87,1.51-3.2-.44-1.48-2.17a11.32,11.32,0,0,1,1.53-1.35Zm-3.73-2.41c3-1.24,2.94-1.26,2.18.76-.86,2.26-4.65,3.72-4.76,1.84-.05-.87,1-2,2.58-2.6Zm-1.63-5.89c1-.46,1.92-.49,2.1-.08s-.41,1.12-1.4,1.65-1.89.57-2.1.08.38-1.19,1.4-1.65ZM-66.86,380c2.42.17,3.25,1.24,2.19,2.84-.73,1.1-3,.05-3.85-1.81-.42-.9,0-1.14,1.66-1ZM-96.35,310.7c.21-.1.55.21.78.72a1,1,0,0,1-.53,1.31c-.51.23-.87-.1-.79-.72s.32-1.21.54-1.31Zm-29.5-61.7c1-.46,2-.43,2.22.07s-.19,1.16-.87,1.46a2.61,2.61,0,0,1-2.23-.07c-.53-.36-.14-1,.88-1.46Zm-53.33-119.53c1.61-.72,2.1-.29,1.19,1.07a1.12,1.12,0,0,1-1.58.23c-.54-.39-.37-1,.39-1.3ZM-202.1,82c1.44-.65,2.55.77,1.46,1.87-.7.71-1.34.65-1.71-.17s-.24-1.48.25-1.7ZM-65.41,391a4,4,0,0,1,2.65.44c1,.47,1.36,1,.86,1.24a3.92,3.92,0,0,1-2.64-.44c-1-.47-1.37-1-.87-1.24ZM-111.1,286.32a1,1,0,0,1,1.29.49,1,1,0,0,1-.49,1.29,1,1,0,0,1-1.29-.48,1,1,0,0,1,.49-1.3Zm-9.21-19c.78-.75,1.42-.68,1.82.2.84,1.86-1.29,3.55-3.27,2.59-1-.48-1.26-1-.7-1.22a10.64,10.64,0,0,0,2.15-1.57Zm-67.36-151.16c.51-.23,1-.22,1.08,0a1.92,1.92,0,0,1-.45,1.38c-.34.49-.86.48-1.08,0a1.06,1.06,0,0,1,.45-1.37Zm-7.58-14.68c2.79.19,3.37,1.59,1.16,2.81l-2.74,1.5a1.78,1.78,0,0,1-2-.48c-.67-.71-.51-1,.52-.89s1.14-.21.29-1c-1.43-1.4-.38-2.11,2.77-1.89ZM-107.49,300a1.61,1.61,0,0,1,1.9-.14c1.26.86-.3,1.55-5.16,2.3-3.34.51-5.77-.54-3.55-1.54a.88.88,0,0,1,1.23.47c.72,1.6,2.22.12,1.53-1.51-.57-1.33-.4-1.35,1.24-.15,1,.76,2.31,1,2.81.57ZM-374.58-296.71a1,1,0,0,1,1.29.49,1,1,0,0,1-.49,1.29,1,1,0,0,1-1.29-.49,1,1,0,0,1,.49-1.29Zm279.3,627.59c2.06-1.09,3.12-.48,2.82,1.63a2.62,2.62,0,0,0,.52,2.16c.4.28.07.84-.69,1.18-1,.47-1.52.07-1.7-1.38s-.52-1.75-1.4-.85-1.17.68-1.21-.32a3,3,0,0,1,1.66-2.42Zm-2.58-6.65c.71-.32,1.59.51,2.2,2.07.85,2.17.69,2.66-1,3a9.39,9.39,0,0,1-3.23.08,4.19,4.19,0,0,0-2.91,1c-1.88,1.49-3.51.74-3.66-1.68-.07-1.19.35-1.56,1.42-1.26a3,3,0,0,0,3.66-3.47c-.2-1.19,0-1.13.68.2a3.35,3.35,0,0,1,.25,2.94c-.5.74-.27,1.1.82,1.26,2.52.37,3.17-.36,1.81-2-.79-1-.83-1.77-.09-2.1Zm-96-216c.71-.32,1,1.63.42,2.54-.33.5-.64.16-.68-.74s.07-1.71.26-1.8Zm-5.15-10c.65.09,1.21.31,1.31.53s-.21.56-.72.79a1,1,0,0,1-1.31-.54c-.23-.51.09-.86.72-.78Zm-22-46.66c1.65-1.31,2.15-1.12,1.11.42-.38.56-.05,1.69.74,2.56s1,1.49.32,1.4c-2.28-.32-3.69-3.16-2.17-4.38Zm-11.4-28.85c.21-.1.55.21.78.71a1,1,0,0,1-.53,1.32c-.51.22-.87-.1-.79-.72s.32-1.22.54-1.31Zm118.21,269.38c1.68-2.16,1.84-2.15,1.52.1a2.11,2.11,0,0,1-1.65,1.76c-1,.09-1-.45.13-1.86Zm-17.76-42.54a1,1,0,0,1,1.29.49,1,1,0,0,1-.49,1.3,1,1,0,0,1-1.29-.49,1,1,0,0,1,.49-1.3ZM-213.17,70.5c1.79-.12,2.38.36,1.14.93a2,2,0,0,1-1.79-.22c-.52-.34-.24-.65.65-.71Zm97.71,216.67c.19-.09.6.44.95,1.2s.24,1.52-.24,1.74-.89-.31-1-1.21,0-1.65.24-1.73Zm-119-259.54c1.26-1.3,1.31-1.26,1,.92-.14,1-.55,1.29-1.17.88s-.46-1.15.16-1.8Zm120.33,268.64c.51-.22,1-.23,1.06,0s-.1.78-.47,1.33-.83.53-1.06,0a1,1,0,0,1,.47-1.34Zm-25.48-52.18c.51-1.35,2.83-.05,2.63,1.47s-.38,1.45-1.51.32c-.7-.7-1.21-1.53-1.12-1.79Zm-66.5-151c1-1,1.76.27,2,3.23.12,1.69-.07,1.66-1.35-.21-.85-1.25-1.13-2.54-.64-3Zm82.85,188.66c.57-.56,1.07-.95,1.09-.85.37,3.5.15,4.23-1,3.09a1.53,1.53,0,0,1-.12-2.24ZM-214.59,83.08c.43-1.07,1-1.34,2-1s1.21.84.73,1.51-.15,1.7.52,2.63a5.41,5.41,0,0,1,.3,4.3c-.77,2.28-1,2.44-1.58,1.12a2.44,2.44,0,0,1,.37-2.57c.86-.84.68-1.37-.94-2.78-1.47-1.28-1.85-2.15-1.41-3.25Zm-6.79-20.3a1.07,1.07,0,0,1,1.33.57c.23.51-.11.91-.7.83s-1.22-.33-1.33-.58.19-.59.7-.82ZM-234.9,33.87c3.46,2.83,3.7,3.71,1.94,7.16-1.51,3-1.5,3,.38,2.2,2.63-1.18,3-.08.88,2.41-1.94,2.25-5.34,2.4-3.89.18.62-1,.32-1.21-1.2-1a5,5,0,0,0-3.12,2.69c-1.4,3-1.07,3.74,1.22,2.71,1-.46,1.72-.34,1.64.28-.2,1.52,2.13,3.51,2.85,2.45.33-.49.7-.48.93,0s-.44,1.52-1.41,2.31c-3,2.42-4.14,2.63-4.25.75-.06-1.18-1.54-2.37-4.31-3.47-4-1.57-4.24-1.86-4.5-5.11-.15-1.87-.83-4-1.49-4.69-.92-.93-.67-1.48,1-2.24,1.28-.58,2.21-1.46,2.15-2s1.83-2.28,4.28-3.86c4.34-2.82,4.4-2.83,6.88-.81ZM-122,289c.33-.86.92-1.48,1.28-1.34s.09.87-.6,1.6c-1,1.09-1.17,1-.68-.26ZM-220.21,67.66c.49-.22,1.18.23,1.52,1s.11,1.33-.51,1.24a2,2,0,0,1-1.52-1,.93.93,0,0,1,.51-1.25Zm117.92,264.53a2.61,2.61,0,0,1,1.71,1.42,1.28,1.28,0,0,1-.32,1.68c-.49.22-1.25-.41-1.71-1.43s-.32-1.75.32-1.67Zm25.61,59.17c.36-.55.81-.57,1-.06a2.08,2.08,0,0,1-.24,1.84c-.37.54-.82.57-1.05.06a2.05,2.05,0,0,1,.25-1.84Zm-39.49-87.76c.5-.23,1-.23,1.06,0s-.11.79-.47,1.34-.84.53-1.07,0a1,1,0,0,1,.48-1.34Zm-24.47-54.37a1.07,1.07,0,0,1,1.33.57c.23.51-.11.91-.7.83s-1.22-.33-1.33-.58.19-.59.7-.82Zm-3.8-8.44a1.93,1.93,0,0,1,1.31.53c.1.22-.21.55-.72.78a1,1,0,0,1-1.31-.53c-.23-.51.1-.86.72-.78ZM-216.8,80c.5-.22,1.16.2,1.5,1s.22,1.53-.28,1.76-1.15-.19-1.5-1-.22-1.53.28-1.76Zm-45.44-98a2.15,2.15,0,0,1,1.72-.72c.43.15,0,.59-.94,1s-1.34.33-.78-.26Zm133.8,304.82c0-.24,1.08-.22,2.31,0,1.82.38,2.28,1,2.4,3.06l.14,2.58-2.45-2.61a12.93,12.93,0,0,1-2.4-3.06ZM-335.86-183.46c.21-.1.55.21.78.72a1,1,0,0,1-.53,1.31c-.51.23-.87-.1-.79-.72s.32-1.21.54-1.31ZM-359.2-230.9c.33-.86.95-1.47,1.35-1.32s.1.91-.61,1.6c-1.06,1-1.22,1-.74-.28ZM-229,57.72c2.16,1.38,2.32,2.43.39,2.56-1,.06-1.85.64-1.93,1.3-.16,1.25-3.39,1.94-3.86.82a5.4,5.4,0,0,1,.09-2.33c.26-1.35.56-1.54,1.3-.85a2.29,2.29,0,0,0,2.24.33,1.35,1.35,0,0,0,.77-1.68c-.34-.76,0-.8,1-.15Zm3.87,15.73c1.27-.36,2.63-.22,3.1.32.67.76.31.92-1.78.79-3.67-.21-3.89-.4-1.32-1.11ZM-300.91-97.39a1,1,0,0,1,1.31.53c.23.51-.09.87-.71.79s-1.22-.32-1.31-.54.21-.55.71-.78ZM-133.5,277.12a1,1,0,0,1,1.3.49,1,1,0,0,1-.49,1.3,1,1,0,0,1-1.3-.49,1,1,0,0,1,.49-1.3Zm-2.83-5.15c.86-.39,1.6.2,2.13,1.7,1,2.74-.63,3.24-2.27.71-.76-1.19-.71-2,.14-2.41Zm-41.56-92c.9,0,1.85.26,2,.66.62,1.36-1.16,1.65-3.19.52a4.5,4.5,0,0,0-3-.61c-2.72,1-3.22,1-3.09-.13.09-.66,1.3-1.7,2.74-2.35,2-.88,2.61-.78,2.69.42a1.59,1.59,0,0,0,1.79,1.49Zm-50.19-113.8c-.18-1.14-.07-1.3.31-.45a17.36,17.36,0,0,1,.92,3.62c.3,2.21.22,2.28-2.11,1.66-1.39-.36-1.83-.6-1-.56s1.14-.51.76-1.36-.16-1.37.39-1.3.9-.66.75-1.61ZM-131.53,283c.62-1.62,1,.88.48,3.15s-.54,2.39-1.41.69a35.63,35.63,0,0,0-2-3.35c-1-1.49-.92-1.55.73-.64,1,.56,2,.63,2.16.15ZM-245.39,30.74a1,1,0,0,1,1.29.49,1,1,0,0,1-.49,1.29,1,1,0,0,1-1.29-.49,1,1,0,0,1,.49-1.29ZM-388.89-287c.22-.09.56.21.79.72a1,1,0,0,1-.54,1.31c-.5.23-.86-.1-.78-.72a2,2,0,0,1,.53-1.31Zm185.21,418.94c1.36-.61,2.22.31,1.68,1.8s-1.73,1.49-2.34.13a1.42,1.42,0,0,1,.66-1.93ZM-404-310.19a2.79,2.79,0,0,1,2.48,0c1.17.8,0,1.3-2.2.94-1.51-.24-1.55-.38-.28-.95ZM-145.92,261.3a1,1,0,0,1,1.29.48,1,1,0,0,1-.49,1.3,1,1,0,0,1-1.29-.49,1,1,0,0,1,.49-1.29Zm-24.57-39.74a2.33,2.33,0,0,1,2-.53c1.07.15,1,.57-.17,1.54-1.57,1.28-2.83.57-1.79-1ZM-242.24,65.74c1.53-1.82,2.26-2.17,3.53-1.69s1.15.63-.35.71a2,2,0,0,0-2.14,1.58,1.82,1.82,0,0,1-1.59,1.58c-.9.07-.71-.68.55-2.18ZM-308.56-85.38a2.11,2.11,0,0,1,1.85.24c.54.37.57.82.06,1a2.11,2.11,0,0,1-1.85-.24c-.54-.37-.57-.82-.06-1Zm-8.33-21.34c1.6.19,1.59.81,0,1.54-.76.34-1.29.11-1.21-.53a1.11,1.11,0,0,1,1.23-1Zm-96.26-192.83a28.86,28.86,0,0,1,5.5-1.61c2.49-.35,2.49-.35.75,1.09-1,.81-1.92,1.07-2.13.6s-.93,0-1.6,1c-1,1.46-1.65,1.66-3.37,1-2-.77-2-.89.85-2.07Zm83.74,172.14c.51-.23,1-.23,1.06,0a2,2,0,0,1-.47,1.34c-.35.52-.83.53-1.06,0a1,1,0,0,1,.47-1.34Zm88.24,201c.9-.72,1.61-1.19,1.65-1.09.22.47-1.25,3.32-1.85,3.59-1.46.65-1.3-1.3.2-2.5Zm-22.14-44a2,2,0,0,1,1.76-.74c.42.14,0,.6-1,1s-1.35.33-.78-.26ZM-335.8-133a1.48,1.48,0,0,0,1.4,1.52c1.19.16,1.15.41-.19,1-1,.48-1.26,1-.59,1.08a3.64,3.64,0,0,1,1.89,1.24c.54.78.09,1-2,1-1.43,0-2.82-.38-3-.79s-.89-.52-1.57-.21a12.33,12.33,0,0,1-4.37.36c-3.46-.2-5.53.42-5,1.52.2.45-.21,1-1,1.36s-1.26.24-1.18-.24-.52-.8-1.22-.78-.73-.27.18-.74a1.77,1.77,0,0,0,.9-2.19c-.38-.85,0-1.44.86-1.49,1.27-.08,4.06-4.35,3.57-5.45-.11-.23-1.83.36-3.76,1.28-2.86,1.37-3.5,2.14-3.22,3.85.25,1.52-.23,2.23-1.64,2.47-1.8.31-1.89.2-.91-1.12.57-.77.7-1.71.27-2s.17-1.65,1.32-2.94,2-2.62,1.91-2.9c-.61-1.37,5.49-2.06,6.67-.75a2.53,2.53,0,0,0,2.57.88c.73-.33,1.62.19,2.07,1.21,1,2.12,1.94,2,2.88-.41.54-1.37.72-1.26,1,.56.19,1.45.67,2.1,1.32,1.81s.94.08.84.84Zm156.41,347.23c.23-.1.71.45,1,1.21s.09,1.33-.56,1.24c-1-.14-1.43-2-.49-2.45Zm-86-187.35a1.07,1.07,0,0,1,1.33.58c.22.51-.11.9-.7.82a1.92,1.92,0,0,1-1.33-.57c-.11-.24.19-.6.7-.83Zm-62.55-131.95a2,2,0,0,1,1.52,1c.58,1.28-.18,1.31-1.46,0-.7-.7-.73-1.13-.06-1ZM-186.26,213.7c.89,0,1.85.27,2,.67.52,1.16,0,1.24-2,.28-1.43-.7-1.43-.87,0-1ZM-401.77-263c.76-.34,1.58-.23,1.8.26a.93.93,0,0,1-.45,1.27,2,2,0,0,1-1.8-.26c-.52-.35-.31-.93.45-1.27Zm-10.09-23.77c.66.09,1.22.31,1.32.53s-.21.56-.72.78a1,1,0,0,1-1.31-.53c-.23-.51.09-.86.71-.78Zm183,416.2a3.08,3.08,0,0,1,2.61-.1c.55.37.4.89-.36,1.23a10.62,10.62,0,0,0-2.51,1.8c-.85.84-1.23.7-1.29-.49a2.69,2.69,0,0,1,1.55-2.44Zm-20.26-49.23c.19-2,.33-2,1.52.55,1.1,2.35,1,2.83-.69,3.11-1.14.19-1.84.68-1.63,1.14s-.71,1.38-1.94,2c-2,1.06-2.22,1-1.76-.64.3-1,1.1-1.9,1.83-1.94,1.58-.08,2.41-1.4,2.67-4.27Zm-3.15-4.5c2.12-1,2.68-.64,1.63.92a1.81,1.81,0,0,1-2.12.48c-1.08-.38-.95-.75.49-1.4ZM-334.4-109.14c.7-.32.5.65-.65,3.09l-1.25,2.66.78-2.8a10.3,10.3,0,0,1,1.12-3Zm-65.19-141.92c1-2.18,1.28-1.62.61,1.34-.28,1.25-.71,1.83-.95,1.3a3.94,3.94,0,0,1,.34-2.64Zm167.83,376.35a.93.93,0,0,1,1.25.51c.22.48-.24,1.17-1,1.52s-1.33.11-1.25-.51a2,2,0,0,1,1-1.52Zm32.57,74.87c.79-1.2.93-.9.61,1.29-.17,1.09-.44,1.35-.74.69a2.25,2.25,0,0,1,.13-2Zm-155.61-344c.36-.17,1,.36,1.33,1.12.42.93.06,1.47-1,1.52a9.21,9.21,0,0,0-2.25.33c-.8.34,1.08-2.57,1.92-3Zm122.44,273.65c.24-.11.59.19.82.7a1.06,1.06,0,0,1-.57,1.33c-.51.23-.91-.1-.83-.7s.33-1.22.58-1.33ZM-417.31-270.95c.87.25,2.53.63,3.86.88,2.43.47.76,1.45-1.85,1.09-1.67-.22-4,2-4.26,4-.1.86-.63,1.45-1.22,1.36s-1.71.73-2.48,1.73c-1.16,1.5-1.86,1.72-3.5,1.07-1.85-.74-1.89-.9-.33-1.74,5.34-2.88,7.87-5.4,6.64-6.61s.91-2.47,3.14-1.82Zm180,393.45c.51-.23,1-.24,1.06,0a1.92,1.92,0,0,1-.47,1.33c-.35.52-.83.53-1.06,0a1,1,0,0,1,.47-1.33Zm-34-71.86c.89,0,1.87.3,2.07.75.54,1.2-1.82,1.43-2.89.28-.51-.55-.17-1,.82-1Zm28.44,64.22c.65.09,1.21.31,1.31.53s-.21.56-.72.78a1,1,0,0,1-1.31-.53c-.23-.51.1-.86.72-.78Zm-117.2-261.69c.23-.11.71.44,1.05,1.2s.09,1.33-.56,1.24c-1.05-.14-1.43-2-.49-2.44Zm141.58,318.14a2,2,0,0,1,1.52,1c.58,1.29-.19,1.31-1.46.05-.7-.71-.73-1.14-.06-1.05Zm-35.53-77.7A1.7,1.7,0,0,1-252,94.69c1,2.21,0,3.78-1.51,2.32-1.85-1.82-2-2.77-.61-3.4Zm19.8,47.6c2.91,1.24,3.11,1.44,2.61,2.64-.19.46-1.32.05-2.55-.93-3.1-2.48-3.12-3-.06-1.71ZM-415.11-262.1c.39-.93.88-1.32,1.09-.85.42.94-.61,3.05-1.34,2.75-.26-.11-.15-1,.25-1.9Zm54.39,123.71c1.8-.09,2.41.43,1.16,1a2,2,0,0,1-1.8-.26c-.54-.36-.26-.68.64-.73Zm101,230.5c2,.75,2.37,1.86.84,2.55-.76.34-1.16,1-.91,1.59s.74.52,1.08,0,.83-.53,1.1.07-.24,1.06-1.13,1.11-1.4.52-1.17,1-.18.84-.84.74c-.87-.14-1-.56-.46-1.38a1.71,1.71,0,0,0-.2-2.15c-1.49-1.47-.17-4.28,1.69-3.59Zm-62.7-134.46a2.11,2.11,0,0,1,1.72-.72c.42.14,0,.58-.94,1s-1.34.33-.78-.26Zm-41.29-95.27c1.35-.65,1.76,2.31.53,3.89-1,1.25-1.37,1.26-1.92.06a3.09,3.09,0,0,1,1.39-4Zm107.93,244.15a4.84,4.84,0,0,1,2.46,1.85c.28.61-.79.56-2.44-.13-3.16-1.33-3.19-2.92,0-1.72ZM-356.26-113.18c.51-.23,1-.24,1.06,0a1.92,1.92,0,0,1-.47,1.33c-.35.52-.83.53-1.06,0a1,1,0,0,1,.47-1.33Zm-16.22-32.75c1.82-1.85,2.56-1.09,1,1-.78,1-1.59,1.47-1.78,1s.19-1.37.82-2Zm-1.84-7.37c.5-.23,1.16.19,1.51,1s.28,1.43-.14,1.52c-1.4.29-3.17,2.92-2.36,3.48.46.31.22.82-.55,1.16-1.56.71-1.7.57-1.84-1.72a2.78,2.78,0,0,1,1.6-2.45c.93-.42,1.51-1.16,1.29-1.65a1,1,0,0,1,.49-1.29Zm166.73,375.83c.33-.86.92-1.48,1.29-1.34s.08.88-.61,1.6c-1,1.09-1.17,1-.68-.26ZM-236.82,158c1.32-.23,2.67.05,2.93.62.36.82.11.93-1.11.5a6.37,6.37,0,0,0-3.86.36c-1.3.53-1.88.5-1.35-.05a7.63,7.63,0,0,1,3.39-1.43Zm21.66,48.37c.63-.64,1.13-1,1.13-.94.18,2.16,0,2.95-.69,3.27-1.31.59-1.63-1.12-.44-2.33ZM-363-118.72a.93.93,0,0,1,1.25.51c.22.48-.23,1.17-1,1.52s-1.33.11-1.25-.51a2.06,2.06,0,0,1,1-1.52Zm-17.19-36.39c.95-.17,1.85,0,2,.42a3.53,3.53,0,0,1-.83,2.36c-.87,1.24-.83,1.5.17,1.05s1.15-.16.75.88c-.74,2-2.45,1.62-4.2-.86-1.49-2.14-.85-3.34,2.08-3.85ZM-437-277.85a2.1,2.1,0,0,1,1.71-.72c.43.14,0,.58-.93,1s-1.34.33-.78-.26Zm173.6,386.36c.25-.11.6.19.83.7a1.07,1.07,0,0,1-.58,1.33c-.5.23-.9-.11-.82-.7a2,2,0,0,1,.57-1.33Zm-111-243c.65.09,1.21.32,1.31.54s-.21.55-.72.78a1,1,0,0,1-1.31-.53c-.23-.51.1-.87.72-.79ZM-431-257.58c.32-.86.75-1.17,1-.69s-.2,1.71-.93,2.81-.94,2.21-.49,2.52c1.94,1.3-1.91,4.48-4.95,4.09-1.23-.16-1.08-.81.64-2.66s1.92-2.78,1-3.67c-1.08-1-.94-1.19,1-1,1.59.12,2.39-.27,2.81-1.36Zm9.62,26.27a2,2,0,0,1,1.76-.74c.42.14,0,.6-1,1s-1.35.32-.78-.26Zm42.29,99.86a2,2,0,0,1,1.55-.86c1-.09,1.09.16.48,1.07-.85,1.27-2.53,1.09-2-.21Zm-9-16.65a3.7,3.7,0,0,1,2.45.47c1.38.67,1.44.94.34,1.43a2.34,2.34,0,0,1-2.46-.47c-.63-.63-.78-1.23-.33-1.43Zm30.79,72.85a1,1,0,0,1,1.29.49,1,1,0,0,1-.49,1.29,1,1,0,0,1-1.29-.49,1,1,0,0,1,.49-1.29Zm-80.08-179.2c.24-.11.6.19.83.7a1.07,1.07,0,0,1-.58,1.33c-.51.23-.9-.11-.82-.7a1.92,1.92,0,0,1,.57-1.33Zm-4.94,3.75a4.47,4.47,0,0,1,2.46-1.21c.82-.05.76.2-.15.67-1.35.68-1.47,2-.35,3.74.56.86-.57,1.26-2.65.93-1.48-.23-1.5-.39-.15-1,.85-.38,1.17-1,.66-1.37s-.45-1.13.18-1.76Zm-1.49-7.28a1,1,0,0,1,1.29.49,1,1,0,0,1-.49,1.29,1,1,0,0,1-1.29-.49,1,1,0,0,1,.49-1.29ZM-353.2-54a2.06,2.06,0,0,1,1.52,1c.56,1.25-.24,1.23-1.52,0-.64-.63-.64-1.05,0-1Zm-44.5-97.64c1.34-1.33,1.84-1,.78.6-.37.54-1,.88-1.29.76s-.12-.73.51-1.36Zm58.33,136.3c.07.89.63,1.47,1.33,1.39s.7.52-.14,1.6c-1.2,1.52-1.48,1.48-2.32-.39-.53-1.19-.52-2.56,0-3.12s1-.46,1.11.52ZM-341.74-19a1,1,0,0,1,1.29.49,1,1,0,0,1-.49,1.29,1,1,0,0,1-1.29-.49,1,1,0,0,1,.49-1.29ZM-444-244.83c.16-.43.62,0,1,1s.28,1.37-.3.8a1.91,1.91,0,0,1-.7-1.78Zm-3.82-1.8c.19-.09.6.44.95,1.2s.24,1.53-.24,1.74-.89-.31-.95-1.2,0-1.65.24-1.74Zm36.56,93.71c.63-.87,1.72-1.46,2.3-1.23s0,1-1.19,1.65c-2,1.06-2.13,1-1.11-.42Zm79.79,192.39c.51-.23,1-.22,1.08,0a1.92,1.92,0,0,1-.45,1.38c-.34.5-.85.48-1.08,0a1.06,1.06,0,0,1,.45-1.37ZM-461.83-242c.64-.4,1.25-.63,1.31-.5.28.63-.75,2-1.94,2.5-1.62.73-1.11-.88.63-2ZM-354.25,8.37a2,2,0,0,1,1.76-.74c.42.14,0,.61-1,1s-1.35.33-.78-.26ZM-359.57-4a1.93,1.93,0,0,1,1.31.53c.1.22-.21.55-.72.78a1,1,0,0,1-1.31-.53c-.23-.51.1-.87.72-.78ZM-430-153.37a1.93,1.93,0,0,1,1.31.53c.1.22-.21.55-.72.78a1,1,0,0,1-1.31-.53c-.23-.51.1-.86.72-.78Zm6.45,36.9c2.15-.12,2.16.48,0,1.44-1,.46-1.79.34-1.7-.26a1.8,1.8,0,0,1,1.66-1.18ZM-382,1.64a4,4,0,0,1,2.65-.79c1.68.11,1.74.22.92,1.93s-.88,1.57-1,.09c-.08-1.24-.59-1.54-1.79-1-.94.39-1.29.31-.8-.2Zm-93.17-207.38c.27-.4.88,0,1.36.92,1,2,.69,2.36-.8.87-.56-.57-.82-1.4-.56-1.79Zm82,185.19c.21-.1.55.21.78.72a1,1,0,0,1-.53,1.31c-.51.23-.87-.1-.79-.72s.32-1.21.54-1.31Zm7.51,25.89c2.08,1.41,2.58,3,1,3.05a10.11,10.11,0,0,0-1.93.24c-.2.09-.68-.61-1.14-1.63-.88-1.95.29-2.87,2.1-1.66Zm-96.06-203.17c.16-.43.63,0,1,1s.28,1.37-.3.8a2,2,0,0,1-.7-1.78ZM-389.7,20.71c.76-.35,1.53-.22,1.75.28s-.19,1.15-.95,1.5-1.53.22-1.76-.28.19-1.16,1-1.5Zm-3.09-3.92c.39-.17.85.08,1.08.59s-.53,1.31-1.64,1.8c-1.61.73-1.83.61-1.08-.58a5.74,5.74,0,0,1,1.64-1.81ZM-491-199.65c.63-.62,1.26-.81,1.43-.43a2.33,2.33,0,0,1-1.11,2.74c-1.29.58-1.53-1.12-.32-2.31ZM-400.92,23.1c.36-.5,1-.06,1.5,1,1,2.12.53,2.57-1,1.07a1.67,1.67,0,0,1-.49-2Zm-9.27-6.44c.1-.26,1.91-.18,3.91.18,2.66.49,3.66,1.14,3.53,2.29a2.68,2.68,0,0,0,.69,2.24c.5.34.29.53-.47.42A1.81,1.81,0,0,1-404,20.14c0-.78-1.52-1.79-3.24-2.21s-3.07-1-3-1.27Zm-.34-11.17c.54-1.07,1-1.36,1.29-.78.49,1.11-.63,3.1-1.54,2.74-.34-.14-.23-1,.25-2ZM-413,20.82c.42-.39,2.34-.7,4.38-.7s2.85.13,1.86.29-1.58.69-1.36,1.17-1,.67-2.62.41-2.68-.79-2.26-1.17Zm2,5.16c.77-.34,1.59-.22,1.81.26a.94.94,0,0,1-.45,1.27,2,2,0,0,1-1.8-.26c-.52-.35-.32-.93.44-1.27Zm-4.67-2.79c.21-.55,1.36-.61,2.59-.15,2.33.89,1.49,1.74-1.33,1.35-.87-.12-1.46-.68-1.26-1.2Zm-4.48,2.63a1,1,0,0,1,1.29.49,1,1,0,0,1-.49,1.29,1,1,0,0,1-1.29-.49,1,1,0,0,1,.49-1.29ZM-436.95-12c1.37.19,1.41.42.44,2.33-.68,1.33-.87,1.26-1.17-.44-.2-1.14.13-2,.73-1.89Zm-76.36-162.9c1.86-1.18,2-.56.33,1.64-1.09,1.44-1.45,1.57-1.59.57a2.6,2.6,0,0,1,1.26-2.21Zm85,194.23c.65.09,1.21.31,1.31.53s-.21.56-.72.78a1,1,0,0,1-1.31-.53c-.23-.51.1-.86.72-.78Zm-.74,5.71a2.27,2.27,0,0,1,1.61,1.09c.26.58-.28.74-1.44.42-2-.55-2.13-1.77-.17-1.51ZM-518.73-171.5a1.94,1.94,0,0,1,1.77-.7c.43.16,0,.63-1,1s-1.38.28-.8-.3ZM-443.68,7.41A2.3,2.3,0,0,1-442,5.87c.69-.06,1,.27.83.81a3.52,3.52,0,0,1-1.71,1.53c-1,.46-1.23.26-.82-.8ZM-523.1-171.68a2,2,0,0,1,1.78-.7c.43.16,0,.63-1,1s-1.37.29-.8-.3ZM-434.64,26.7c.89-.73,1.72-.92,1.93-.46s-.4,1.15-1.42,1.6-1.85.66-1.93.47.52-.89,1.42-1.61Zm-6.05-.85a3.9,3.9,0,0,1,2.25-1c.74,0,.34.41-.94,1s-1.84.58-1.31,0Zm-34-54.72c.51-.23,1-.22,1.08,0a1.92,1.92,0,0,1-.45,1.38c-.33.49-.85.48-1.08,0a1.06,1.06,0,0,1,.45-1.37Zm1,4.46c2.11,1.91,2.41,2.59,1.36,3.06-.48.22-1.31-.68-1.9-2-.91-2.14-.85-2.26.54-1Zm-43.49-96.71a1,1,0,0,1,1.29.49,1,1,0,0,1-.49,1.29,1,1,0,0,1-1.29-.49,1,1,0,0,1,.49-1.29Zm30.55,86.93a1,1,0,0,1,1.29.49,1,1,0,0,1-.49,1.29,1,1,0,0,1-1.29-.49,1,1,0,0,1,.49-1.29Zm-56.81-119c.51-.23,1-.24,1.07,0s-.11.79-.47,1.33-.84.53-1.07,0a1,1,0,0,1,.47-1.33Zm-2.66-3.65c.65.09,1.22.31,1.31.53s-.21.56-.72.78a1,1,0,0,1-1.31-.53c-.22-.51.1-.86.72-.78Zm-8.76,10.55c1.19-1.2,2.9-.66,2.37.74-.47,1.25-2.66,2-3.08,1.08-.19-.4.14-1.25.71-1.82Zm-7.14-2.48a2,2,0,0,1,1.76-.74c.42.14,0,.61-1,1s-1.35.33-.78-.26Zm75.64,167c1-.48,1.88,2.14,1.09,3.32a2,2,0,0,1-2.2.45c-1.13-.4-1.27-.9-.54-2a6,6,0,0,1,1.65-1.77ZM-524-52.7a1,1,0,0,1,1.29.49,1,1,0,0,1-.49,1.29,1,1,0,0,1-1.29-.49A1,1,0,0,1-524-52.7Zm26.26,73.87c3.13-1.41,4-.24,1,1.28-1.42.7-2.65.91-2.85.47s.68-1.22,1.87-1.75ZM-518.81-18.2a2,2,0,0,1,1.56-.86c1-.09,1.09.16.47,1.07-.85,1.27-2.52,1.09-2-.21ZM-528-34.13c1.2-1.2,2.91-.66,2.38.74s-2.67,2-3.09,1.08a2.1,2.1,0,0,1,.71-1.82Zm5.65,23.43c.63-1.54,1.61-2.78,2.25-2.83s.41,1-.48,2.46c-2.2,3.5-3.13,3.7-1.77.37Zm-35.69-80.67c.89-.06,1.85.25,2,.66.55,1.21-1.06,1.6-2.91.7s-1.6-1.22.88-1.36Zm-13.51-27.75c2.2.58,2.58,1,1.4,1.52-.45.2-1.41-.18-2.05-.81-1-1-.87-1.11.65-.71Zm-2.79,11.46c1.6.19,1.59.82,0,1.54-.77.35-1.3.12-1.21-.52a1.11,1.11,0,0,1,1.23-1ZM-536.2-1.2a2,2,0,0,1,1.76.28c.54.36.36.91-.41,1.25s-1.53.23-1.75-.27a.92.92,0,0,1,.4-1.26Zm-34.08-68.15c1.6-.75,3-.93,3.28-.41.5,1.11-2.21,2.35-4.4,2-1.34-.21-1.08-.59,1.12-1.61Zm-15-25.45c.77-.34,1.59-.22,1.81.26a1,1,0,0,1-.45,1.28,2.05,2.05,0,0,1-1.8-.27c-.52-.35-.32-.92.44-1.27Zm-17.27,16.35a2.53,2.53,0,0,1,2.16,0c1.14.79,0,2.61-1.58,2.39s-2-1.78-.58-2.43Zm-10.4.7c1.94-1.36,3.09-1.25,2,.2s-4.9,4-5.17,3.35c-.47-1.11.17-4.2.65-3.15.28.58,1.33.42,2.49-.4Zm-3.26,8.17c.79-1.2.93-.91.61,1.28-.17,1.1-.44,1.35-.74.69a2.23,2.23,0,0,1,.13-2Zm3.54,11.39c.63-.64,1.25-.75,1.47-.26s-.17,1.1-.93,1.44-1.38.45-1.47.26.3-.81.93-1.44Zm3.12,9.29c.89-.05,1.74.25,1.93.67.57,1.28-1.06,2.84-2.42,2.32a1.52,1.52,0,0,1,.49-3Zm-7.61-15.43a2,2,0,0,1,1.84.24c.55.37.57.81.06,1a2,2,0,0,1-1.84-.24c-.54-.37-.57-.81-.06-1ZM-619.41-67a1,1,0,0,1,1.51-.27,1,1,0,0,1,.27,1.51,1,1,0,0,1-1.51.27,1,1,0,0,1-.27-1.51ZM-613-42c1-.07,1.88.21,2.08.65.52,1.16-.05,1.24-2,.3-1.52-.72-1.52-.85,0-.95Zm-7.4-3.76c.51-.23,1-.24,1.06,0a2,2,0,0,1-.47,1.34c-.35.52-.83.52-1.06,0a1,1,0,0,1,.47-1.33Z"/><path class="cls-4" d="M30.7,28.83a2.11,2.11,0,0,1-1.54-1c-.23-.51.09-.83.74-.75a2.09,2.09,0,0,1,1.54,1.05c.23.51-.09.82-.74.74Z"/><path class="cls-4" d="M1.07,3.55c0,2-.07,2-.95.17C-.4,2.63-.42,1.57.07,1.35S1,1,1,1.18s.05,1.15.05,2.37Z"/><path class="cls-4" d="M-.57,6.94a1,1,0,0,1-1.29-.49,1,1,0,0,1,.49-1.29,1,1,0,0,1,1.29.49A1,1,0,0,1-.57,6.94Z"/></g></g><g id="DS"><circle class="cls-5" cx="17.69" cy="17.69" r="17.69"/><path class="cls-6" d="M23.18,11a1.22,1.22,0,1,0,1.22,1.21A1.21,1.21,0,0,0,23.18,11Z"/><path class="cls-6" d="M17.78,12.56a5.11,5.11,0,1,0,5.1,5.11A5.11,5.11,0,0,0,17.78,12.56Zm0,8.38a3.28,3.28,0,1,1,3.27-3.27A3.28,3.28,0,0,1,17.78,20.94Z"/><path class="cls-6" d="M21.83,28H13.55a6.24,6.24,0,0,1-6.23-6.23V13.53a6.24,6.24,0,0,1,6.23-6.24h8.28a6.24,6.24,0,0,1,6.23,6.24v8.28A6.24,6.24,0,0,1,21.83,28ZM13.55,9.25a4.28,4.28,0,0,0-4.28,4.28v8.28a4.28,4.28,0,0,0,4.28,4.28h8.28a4.28,4.28,0,0,0,4.28-4.28V13.53a4.28,4.28,0,0,0-4.28-4.28Z"/></g></svg>