<svg xmlns="http://www.w3.org/2000/svg"  viewBox="0 0 64 64" width="64px" height="64px"><circle cx="32" cy="33" r="28" fill="#f283a5"/><path fill="#8d6c9f" d="M25.953,8.876c-0.813,0.195-1.622,0.438-2.406,0.72c-0.518,0.187-0.789,0.76-0.601,1.28 c0.186,0.519,0.759,0.788,1.28,0.601c0.714-0.258,1.452-0.479,2.196-0.658c0.156-0.037,0.293-0.109,0.408-0.206 c0.281-0.236,0.421-0.62,0.33-1C27.031,9.076,26.491,8.746,25.953,8.876z"/><path fill="#8d6c9f" d="M43.987,49.09c-0.279-0.479-0.892-0.64-1.369-0.361c-0.477,0.278-0.638,0.89-0.36,1.367 l1.007,1.728c0.278,0.476,0.89,0.637,1.368,0.36c0.155-0.091,0.278-0.217,0.362-0.363c0.173-0.3,0.186-0.684-0.001-1.004 L43.987,49.09z"/><path fill="#8d6c9f" d="M19.446,11.557c-4.483,2.717-7.93,6.912-9.71,11.813c-0.188,0.52,0.079,1.094,0.599,1.282 c0.346,0.127,0.719,0.047,0.984-0.176c0.13-0.109,0.233-0.252,0.295-0.423c1.626-4.474,4.776-8.303,8.868-10.784 c0.478-0.295,0.624-0.902,0.338-1.374C20.535,11.423,19.919,11.272,19.446,11.557z"/><path fill="#8d6c9f" d="M47.853,45.768c-0.392-0.389-1.025-0.387-1.414,0.005c-0.382,0.386-0.388,1.024,0.005,1.414 l1.42,1.409c0.392,0.39,1.025,0.387,1.414-0.005c0.061-0.063,0.114-0.131,0.157-0.205c0.221-0.383,0.167-0.883-0.163-1.21 L47.853,45.768z"/><path fill="#8d6c9f" d="M54.799,31.657l-2.001,0.007c-0.554,0.003-0.999,0.45-0.996,1.005 c0.002,0.552,0.452,0.997,1.004,0.995l2-0.008c0.37-0.002,0.691-0.202,0.863-0.5c0.086-0.148,0.134-0.32,0.134-0.504 C55.801,32.1,55.352,31.655,54.799,31.657z"/><path fill="#8d6c9f" d="M52.463,42.549l-1.736-0.992c-0.479-0.274-1.087-0.109-1.363,0.368 c-0.001,0.001-0.002,0.002-0.003,0.004c-0.274,0.479-0.107,1.09,0.372,1.364l1.736,0.992c0.479,0.274,1.087,0.109,1.363-0.368 c0,0,0.001-0.002,0.002-0.003C53.109,43.434,52.942,42.824,52.463,42.549z"/><path fill="#8d6c9f" d="M52.42,11.407C46.949,5.982,39.704,3,32.005,3c-0.042,0-0.085,0-0.127,0 c-7.746,0.033-15.017,3.08-20.471,8.581S2.967,24.377,3,32.123s3.08,15.016,8.58,20.47C17.051,58.018,24.296,61,31.995,61 c0.042,0,0.085,0,0.127,0c7.746-0.033,15.017-3.08,20.471-8.581S61.033,39.623,61,31.877S57.92,16.861,52.42,11.407z M51.173,51.011c-3.817,3.85-8.59,6.408-13.789,7.454l-2,0.318c-1.077,0.134-2.167,0.212-3.27,0.217 c-1.3,0.004-2.585-0.086-3.851-0.261l-1.999-0.356c-4.982-1.074-9.568-3.534-13.274-7.209C7.867,46.095,5.03,39.326,5,32.114 s2.749-14.004,7.827-19.125S24.674,5.031,31.886,5c0.04,0,0.079,0,0.119,0c7.167,0,13.913,2.777,19.006,7.827 C56.133,17.905,58.97,24.674,59,31.886S56.251,45.89,51.173,51.011z"/><path fill="#8d6c9f" d="M54.347,37.256l-1.933-0.509c-0.535-0.141-1.08,0.182-1.222,0.712 c-0.14,0.535,0.177,1.082,0.712,1.222l1.934,0.51c0.446,0.118,0.9-0.085,1.12-0.466c0.044-0.077,0.078-0.159,0.101-0.247 C55.199,37.943,54.881,37.396,54.347,37.256z"/><path fill="#fff8ee" d="M31,40H18V24h7.5c2.485,0,4.5,2.015,4.5,4.5v0c0,2.485-2.015,4.5-4.5,4.5H25L31,40z"/><path fill="#fff8ee" d="M43,32h-3c2.209,0,4-1.791,4-4c0-2.209-1.791-4-4-4h-6v8v8h9c2.209,0,4-1.791,4-4 C47,33.791,45.209,32,43,32z"/><g><path fill="#8d6c9f" d="M31,41H18c-0.552,0-1-0.447-1-1V24c0-0.553,0.448-1,1-1h7.5c3.033,0,5.5,2.468,5.5,5.5 c0,2.514-1.696,4.64-4.003,5.293l4.763,5.557c0.254,0.296,0.312,0.714,0.149,1.068C31.745,40.772,31.391,41,31,41z M19,39h9.826 l-4.585-5.35c-0.254-0.296-0.312-0.714-0.149-1.068C24.255,32.228,24.609,32,25,32h0.5c1.93,0,3.5-1.57,3.5-3.5 S27.43,25,25.5,25H19V39z"/><path fill="#8d6c9f" d="M43,41h-9c-0.552,0-1-0.447-1-1V24c0-0.553,0.448-1,1-1h6c2.757,0,5,2.243,5,5 c0,1.164-0.4,2.236-1.069,3.087C46.245,31.524,48,33.561,48,36C48,38.757,45.757,41,43,41z M35,39h8c1.654,0,3-1.346,3-3 s-1.346-3-3-3h-3c-0.552,0-1-0.447-1-1s0.448-1,1-1c1.654,0,3-1.346,3-3s-1.346-3-3-3h-5V39z"/></g></svg>